<svg width="32" height="32" viewBox="0 0 32 32" fill="none" xmlns="http://www.w3.org/2000/svg">
<path d="M28.4938 2.9375H8.04931C6.48111 2.9375 5.20984 4.20877 5.20984 5.77697V18.2708C5.20984 19.839 6.48111 21.1103 8.04931 21.1103H28.4938C30.062 21.1103 31.3333 19.839 31.3333 18.2708V5.77697C31.3333 4.20877 30.062 2.9375 28.4938 2.9375Z" fill="#FE9C39"/>
<path d="M31.3333 5.77697V18.2703C31.3333 19.0235 31.0341 19.7459 30.5015 20.2785C29.9689 20.8111 29.2465 21.1103 28.4933 21.1103H19.2933C16.4618 19.4656 14.1111 17.107 12.476 14.27C10.8408 11.433 9.97836 8.21669 9.97464 4.94217C9.97336 4.27246 10.0094 3.6032 10.0825 2.9375H28.4933C29.2464 2.9375 29.9687 3.23664 30.5013 3.76913C31.0339 4.30162 31.3332 5.02384 31.3333 5.77697Z" fill="#FFAB56"/>
<path d="M31.3334 5.77697V14.0514C25.041 13.7847 19.9184 9.0367 19.1291 2.9375H28.4934C29.2465 2.9375 29.9688 3.23664 30.5014 3.76913C31.0339 4.30162 31.3332 5.02384 31.3334 5.77697Z" fill="#FFB870"/>
<path d="M5.20984 8.04883H31.3333V11.4563H5.20984V8.04883Z" fill="#E6E9EC"/>
<path d="M31.3333 8.04883V11.4563H11.1445C10.7335 10.3521 10.4293 9.21105 10.2358 8.04883H31.3333Z" fill="#F9FDFF"/>
<path d="M31.3333 8.04883V11.4563H24.0981C22.8567 10.5201 21.7964 9.36539 20.9692 8.04883H31.3333Z" fill="white"/>
<path d="M23.9507 10.8887H3.50615C1.93796 10.8887 0.666687 12.1599 0.666687 13.7281V26.222C0.666687 27.7902 1.93796 29.0615 3.50615 29.0615H23.9507C25.5189 29.0615 26.7902 27.7902 26.7902 26.222V13.7281C26.7902 12.1599 25.5189 10.8887 23.9507 10.8887Z" fill="#F83B0A"/>
<path d="M17.7037 26.2219H15.4321C15.3568 26.223 15.282 26.2092 15.2121 26.1812C15.1422 26.1531 15.0785 26.1115 15.0249 26.0586C14.9712 26.0058 14.9286 25.9428 14.8995 25.8733C14.8704 25.8038 14.8554 25.7293 14.8554 25.6539C14.8554 25.5786 14.8704 25.504 14.8995 25.4346C14.9286 25.3651 14.9712 25.3021 15.0249 25.2492C15.0785 25.1964 15.1422 25.1547 15.2121 25.1267C15.282 25.0987 15.3568 25.0849 15.4321 25.086H17.7037C17.8528 25.0883 17.9951 25.1491 18.0997 25.2554C18.2044 25.3617 18.263 25.5048 18.263 25.6539C18.263 25.8031 18.2044 25.9462 18.0997 26.0525C17.9951 26.1587 17.8528 26.2196 17.7037 26.2219Z" fill="white"/>
<path d="M22.8148 26.2218H20.5432C20.3941 26.2195 20.2518 26.1587 20.1472 26.0524C20.0425 25.9462 19.9839 25.803 19.9839 25.6539C19.9839 25.5047 20.0425 25.3616 20.1472 25.2553C20.2518 25.1491 20.3941 25.0882 20.5432 25.0859H22.8148C22.9639 25.0882 23.1061 25.1491 23.2108 25.2553C23.3154 25.3616 23.3741 25.5047 23.3741 25.6539C23.3741 25.803 23.3154 25.9462 23.2108 26.0524C23.1061 26.1587 22.9639 26.2195 22.8148 26.2218Z" fill="white"/>
<path d="M26.7901 13.7287V26.222C26.7901 26.9752 26.4909 27.6976 25.9583 28.2302C25.4257 28.7628 24.7034 29.062 23.9501 29.062H19.7085C11.0195 27.4487 4.42628 19.942 4.30121 10.8887H23.9507C24.7038 10.8888 25.426 11.1881 25.9585 11.7207C26.491 12.2533 26.7901 12.9755 26.7901 13.7287Z" fill="#F8542A"/>
<path d="M26.7901 13.7281V19.7308C26.6026 19.7421 26.4097 19.7479 26.2222 19.7479C23.505 19.7547 20.8553 18.9012 18.6528 17.3098C16.4503 15.7184 14.808 13.4706 13.9613 10.8887H23.9506C24.7037 10.8888 25.4258 11.188 25.9583 11.7205C26.4908 12.253 26.79 12.9751 26.7901 13.7281Z" fill="#FF724E"/>
<path d="M9.1852 23.3843C9.18474 23.5348 9.12477 23.6789 9.01838 23.7854C8.91199 23.8918 8.76781 23.9518 8.61733 23.9523H4.642C4.49288 23.95 4.35065 23.8891 4.246 23.7829C4.14136 23.6766 4.0827 23.5335 4.0827 23.3843C4.0827 23.2352 4.14136 23.0921 4.246 22.9858C4.35065 22.8795 4.49288 22.8187 4.642 22.8164H8.61733C8.71749 22.8166 8.81566 22.8443 8.9012 22.8964L8.9068 22.9021C9.00927 22.9609 9.09073 23.0503 9.13973 23.1577C9.13413 23.1633 9.13973 23.1633 9.13973 23.1633C9.16948 23.2332 9.18494 23.3083 9.1852 23.3843Z" fill="#E6E9EC"/>
<path d="M12.0247 25.6558C12.0269 25.6865 12.023 25.7174 12.0133 25.7467C11.9938 25.88 11.9267 26.0017 11.8244 26.0894C11.7221 26.1771 11.5915 26.2248 11.4568 26.2238H4.642C4.49288 26.2215 4.35065 26.1606 4.246 26.0544C4.14136 25.9481 4.0827 25.805 4.0827 25.6558C4.0827 25.5067 4.14136 25.3635 4.246 25.2573C4.35065 25.151 4.49288 25.0902 4.642 25.0879H11.4568C11.6073 25.0883 11.7514 25.1483 11.8578 25.2547C11.9642 25.3611 12.0242 25.5053 12.0247 25.6558Z" fill="#E6E9EC"/>
<path d="M10.889 15.4328V18.8406C10.8881 19.1416 10.7681 19.43 10.5553 19.6428C10.3425 19.8557 10.0541 19.9756 9.75309 19.9765H5.20989C4.90892 19.9756 4.62054 19.8557 4.40773 19.6428C4.19493 19.43 4.075 19.1416 4.07416 18.8406V15.4328C4.07428 15.2251 4.13157 15.0214 4.23976 14.8441C4.34794 14.6668 4.50284 14.5227 4.68749 14.4276C4.8478 14.3406 5.02752 14.2956 5.20989 14.2969H9.75309C10.0541 14.2977 10.3425 14.4177 10.5553 14.6305C10.7682 14.8434 10.8881 15.1318 10.889 15.4328Z" fill="#E6E9EC"/>
<path d="M9.13973 23.156C9.0604 23.0708 8.9808 22.9856 8.9068 22.9004C9.00926 22.9591 9.09073 23.0485 9.13973 23.156Z" fill="#FEEC88"/>
<path d="M10.8889 15.433V18.8409C10.888 19.1419 10.7681 19.4303 10.5552 19.6431C10.3424 19.8559 10.054 19.9759 9.75304 19.9768H6.81117C5.80777 18.2541 5.09053 16.38 4.68744 14.4276C4.84775 14.3406 5.02747 14.2956 5.20984 14.2969H9.75304C10.0541 14.2977 10.3425 14.4177 10.5554 14.6306C10.7682 14.8435 10.8881 15.132 10.8889 15.433Z" fill="#F9FDFF"/>
<path d="M12.0247 25.6538C12.0269 25.6846 12.023 25.7155 12.0134 25.7447C11.7239 25.5346 11.44 25.3187 11.1674 25.0859H11.4568C11.6073 25.0864 11.7515 25.1464 11.8579 25.2528C11.9643 25.3592 12.0242 25.5033 12.0247 25.6538Z" fill="#F9FDFF"/>
</svg>
