<svg width="28" height="28" viewBox="0 0 28 28" fill="none" xmlns="http://www.w3.org/2000/svg">
<g clip-path="url(#clip0_1_8306)">
<path d="M0 16.7639V8.03899C0 4.87275 2.57595 2.2968 5.74219 2.2968H21.0547V0.0429688L27.957 6.94524L21.0547 13.8475V11.5937H6.95138C4.75694 11.5937 2.7201 12.6838 1.50287 14.5096L0 16.7639Z" fill="#F8542A"/>
<path d="M6.9453 27.9573L0.0430298 21.055L6.9453 14.1528V16.4066H21.0486C23.2431 16.4066 25.2799 15.3165 26.4971 13.4907L28 11.2363V19.9613C28 23.1275 25.424 25.7035 22.2578 25.7035H6.9453V27.9573Z" fill="#FF8F53"/>
<path d="M26.4971 13.4907C25.2799 15.3165 23.2431 16.4066 21.0486 16.4066H14V25.7035H22.2578C25.4241 25.7035 28 23.1275 28 19.9613V11.2363L26.4971 13.4907Z" fill="#FE7E39"/>
<path d="M27.957 6.94524L21.0547 0.0429688V2.2968H14V11.5937H21.0547V13.8475L27.957 6.94524Z" fill="#F83B0A"/>
</g>
<defs>
<clipPath id="clip0_1_8306">
<rect width="28" height="28" fill="white"/>
</clipPath>
</defs>
</svg>
