<svg width="32" height="28" viewBox="0 0 32 28" fill="none" xmlns="http://www.w3.org/2000/svg">
<path d="M32 9.38107V15.4572C32 16.085 31.52 16.5824 30.9143 16.5824H26.1485C24.1143 16.5824 22.48 14.8887 22.48 12.7804V12.0579C22.48 9.9496 24.1143 8.25586 26.1485 8.25586H30.9143C31.52 8.25586 32 8.75332 32 9.38107Z" fill="#FF724E"/>
<path d="M12.1943 17.2935C12.1943 18.1676 11.0514 18.934 9.33028 19.3556C8.39428 19.5937 7.28342 19.7311 6.09371 19.7311C4.912 19.7311 3.80114 19.5937 2.86514 19.3556C1.14286 18.934 0 18.1676 0 17.2935C0 15.9444 2.72914 14.8477 6.09371 14.8477C9.46514 14.8488 12.1943 15.9444 12.1943 17.2935Z" fill="#FFAB56"/>
<path d="M9.72571 21.0826C8.63542 21.3574 7.37485 21.5054 6.09257 21.5054C4.81714 21.5054 3.55885 21.3574 2.456 21.079C1.38628 20.8173 0.595428 20.4631 0 20.0746V21.4225C0 22.2966 1.13486 23.0559 2.848 23.4846C3.784 23.7298 4.90285 23.8684 6.09257 23.8684C7.29028 23.8684 8.40114 23.7298 9.34514 23.4846C11.0594 23.0559 12.1931 22.2966 12.1931 21.4225V20.0723C11.5966 20.4631 10.8011 20.8185 9.72571 21.0826Z" fill="#FE9C39"/>
<path d="M9.74856 25.2121C8.66399 25.494 7.39428 25.6445 6.09257 25.6445C4.78628 25.6445 3.52 25.4928 2.42857 25.2074C1.37714 24.9445 0.592 24.5986 0 24.216V25.5544C0 26.4286 1.13486 27.1878 2.848 27.6236C3.784 27.8617 4.90285 27.9991 6.09257 27.9991C7.29028 27.9991 8.40114 27.8605 9.34514 27.6236C11.0594 27.1866 12.1931 26.4274 12.1931 25.5544V24.2148C11.5988 24.5986 10.8091 24.9468 9.74856 25.2121Z" fill="#FE7E39"/>
<path d="M26.1486 6.47885H30.6172V4.25212C30.6172 1.90694 28.7772 0 26.5144 0H6.45722C4.19437 0 2.35437 1.90694 2.35437 4.25212V13.5191C3.50866 13.2195 4.80123 13.0714 6.09265 13.0714C9.79094 13.0714 13.5475 14.231 13.9086 16.8509V21.0201V21.4252V24.8494H26.5144C28.7772 24.8494 30.6172 22.9425 30.6172 20.5973V18.3587H26.1486C23.1806 18.3587 20.7658 15.856 20.7658 12.78V12.0575C20.7658 8.98274 23.1806 6.47885 26.1486 6.47885ZM13.8218 6.61388H7.92808C7.36008 6.61388 6.89951 6.13655 6.89951 5.54789C6.89951 4.95922 7.36008 4.4819 7.92808 4.4819H13.8206C14.3886 4.4819 14.8492 4.95922 14.8492 5.54789C14.8492 6.13655 14.3898 6.61388 13.8218 6.61388Z" fill="url(#paint0_linear_1_8224)"/>
<defs>
<linearGradient id="paint0_linear_1_8224" x1="30.6172" y1="12.4247" x2="2.35437" y2="12.4247" gradientUnits="userSpaceOnUse">
<stop stop-color="#F8542A"/>
<stop offset="1" stop-color="#F83B0A"/>
</linearGradient>
</defs>
</svg>
