<svg width="30" height="30" viewBox="0 0 30 30" fill="none" xmlns="http://www.w3.org/2000/svg">
<g clip-path="url(#clip0_1443_8729)">
<path d="M12.5 28.75C12.5 29.0815 12.3683 29.3995 12.1339 29.6339C11.8995 29.8683 11.5815 30 11.25 30H1.25C0.918479 30 0.600537 29.8683 0.366117 29.6339C0.131696 29.3995 0 29.0815 0 28.75C0 28.4185 0.131696 28.1005 0.366117 27.8661C0.600537 27.6317 0.918479 27.5 1.25 27.5H11.25C11.5815 27.5 11.8995 27.6317 12.1339 27.8661C12.3683 28.1005 12.5 28.4185 12.5 28.75Z" fill="url(#paint0_linear_1443_8729)"/>
<path d="M1.25 25H8.75C9.08152 25 9.39946 24.8683 9.63388 24.6339C9.8683 24.3995 10 24.0815 10 23.75C10 23.4185 9.8683 23.1005 9.63388 22.8661C9.39946 22.6317 9.08152 22.5 8.75 22.5H1.25C0.918479 22.5 0.600537 22.6317 0.366117 22.8661C0.131696 23.1005 0 23.4185 0 23.75C0 24.0815 0.131696 24.3995 0.366117 24.6339C0.600537 24.8683 0.918479 25 1.25 25Z" fill="url(#paint1_linear_1443_8729)"/>
<path d="M1.25 20H6.25C6.58152 20 6.89946 19.8683 7.13388 19.6339C7.3683 19.3995 7.5 19.0815 7.5 18.75C7.5 18.4185 7.3683 18.1005 7.13388 17.8661C6.89946 17.6317 6.58152 17.5 6.25 17.5H1.25C0.918479 17.5 0.600537 17.6317 0.366117 17.8661C0.131696 18.1005 0 18.4185 0 18.75C0 19.0815 0.131696 19.3995 0.366117 19.6339C0.600537 19.8683 0.918479 20 1.25 20Z" fill="url(#paint2_linear_1443_8729)"/>
<path d="M15 0C11.0218 0 7.20644 1.58035 4.3934 4.3934C1.58035 7.20644 0 11.0218 0 15C0 15.0763 0.01 15.15 0.01125 15.2262C0.408245 15.0807 0.827203 15.0042 1.25 15H6.25C6.86362 14.9979 7.46832 15.147 8.01069 15.434C8.55307 15.7209 9.01644 16.1371 9.35989 16.6456C9.70334 17.1541 9.91631 17.7393 9.97998 18.3496C10.0437 18.9599 9.95609 19.5765 9.725 20.145C10.2368 20.2793 10.7141 20.5213 11.1249 20.8548C11.5357 21.1883 11.8706 21.6056 12.1072 22.0789C12.3439 22.5522 12.4768 23.0705 12.4971 23.5992C12.5174 24.128 12.4246 24.655 12.225 25.145C12.7249 25.2725 13.1925 25.5035 13.5974 25.8231C14.0024 26.1427 14.3358 26.5438 14.5761 27.0003C14.8163 27.4569 14.958 27.9588 14.9921 28.4736C15.0261 28.9883 14.9518 29.5045 14.7738 29.9887C14.85 29.9887 14.9237 30 15 30C18.9782 30 22.7936 28.4196 25.6066 25.6066C28.4196 22.7936 30 18.9782 30 15C30 11.0218 28.4196 7.20644 25.6066 4.3934C22.7936 1.58035 18.9782 0 15 0ZM19.6337 19.6337C19.3993 19.8681 19.0815 19.9997 18.75 19.9997C18.4185 19.9997 18.1007 19.8681 17.8663 19.6337L14.1163 15.8837C13.8818 15.6494 13.7501 15.3315 13.75 15V8.75C13.75 8.41848 13.8817 8.10054 14.1161 7.86612C14.3505 7.6317 14.6685 7.5 15 7.5C15.3315 7.5 15.6495 7.6317 15.8839 7.86612C16.1183 8.10054 16.25 8.41848 16.25 8.75V14.4825L19.6337 17.8663C19.8681 18.1007 19.9997 18.4185 19.9997 18.75C19.9997 19.0815 19.8681 19.3993 19.6337 19.6337Z" fill="url(#paint3_linear_1443_8729)"/>
</g>
<defs>
<linearGradient id="paint0_linear_1443_8729" x1="0.551471" y1="27.5" x2="12.5321" y2="28.0489" gradientUnits="userSpaceOnUse">
<stop stop-color="#F80A0A"/>
<stop offset="1" stop-color="#FF6A00"/>
</linearGradient>
<linearGradient id="paint1_linear_1443_8729" x1="0.441177" y1="22.5" x2="10.0329" y2="22.8516" gradientUnits="userSpaceOnUse">
<stop stop-color="#F80A0A"/>
<stop offset="1" stop-color="#FF6A00"/>
</linearGradient>
<linearGradient id="paint2_linear_1443_8729" x1="0.330882" y1="17.5" x2="7.52892" y2="17.6979" gradientUnits="userSpaceOnUse">
<stop stop-color="#F80A0A"/>
<stop offset="1" stop-color="#FF6A00"/>
</linearGradient>
<linearGradient id="paint3_linear_1443_8729" x1="1.32353" y1="-4.03143e-07" x2="30.135" y2="0.263996" gradientUnits="userSpaceOnUse">
<stop stop-color="#F80A0A"/>
<stop offset="1" stop-color="#FF6A00"/>
</linearGradient>
<clipPath id="clip0_1443_8729">
<rect width="30" height="30" fill="white"/>
</clipPath>
</defs>
</svg>
