<svg width="36" height="36" viewBox="0 0 36 36" fill="none" xmlns="http://www.w3.org/2000/svg">
<path d="M8.02144 4.11743C5.38971 6.74916 4.04513 10.1376 4.13295 13.9165C4.21444 17.4215 5.56704 20.9973 7.94157 23.9849L17.1744 35.6015C17.3744 35.8533 17.6784 36 18 36C18.3216 36 18.6256 35.8533 18.8257 35.6015L28.0585 23.9849C30.433 20.9973 31.7856 17.4216 31.8671 13.9165C31.9549 10.1375 30.6102 6.74909 27.9786 4.11743C25.3234 1.46229 21.7796 0 18 0C14.2204 0 10.6767 1.46229 8.02144 4.11743ZM26.487 5.60897C30.9098 10.0318 30.8769 17.0485 26.4071 22.6725L18 33.2502L9.59286 22.6725C5.12302 17.0485 5.09018 10.0318 9.51298 5.60897C11.8532 3.26883 14.9261 2.09918 18 2.09918C21.0732 2.09918 24.1474 3.26939 26.487 5.60897ZM12.295 14.3128L12.3367 14.2775V19.7843C12.3367 20.3667 12.8089 20.8389 13.3913 20.8389H22.6086C23.1911 20.8389 23.6633 20.3667 23.6633 19.7843V14.2775L23.705 14.3129C23.9032 14.4808 24.1454 14.5628 24.3862 14.5628C24.6855 14.5628 24.9829 14.4361 25.1915 14.1899C25.5679 13.7455 25.5129 13.08 25.0684 12.7034L18.6817 7.29295C18.2883 6.95974 17.7116 6.95974 17.3182 7.29295L10.9314 12.7034C10.4869 13.08 10.4319 13.7455 10.8083 14.1899C11.185 14.6342 11.8505 14.6893 12.295 14.3128ZM18 9.47981L21.5539 12.4905V18.7295H14.446V12.4905L18 9.47981Z" fill="#767676"/>
</svg>
