<svg width="35" height="35" viewBox="0 0 35 35" fill="none" xmlns="http://www.w3.org/2000/svg">
<g id="icon">
<g id="bg">
<circle id="bg_2" cx="17.5" cy="17.5" r="17" fill="white" stroke="#F83B0A"/>
</g>
<g id="icon_2">
<path id="Vector" d="M27.7683 17.046L26.4961 15.8659C26.4093 15.7854 26.3428 15.6857 26.3019 15.5747L25.3028 12.8617C25.1599 12.4793 24.9039 12.1496 24.5689 11.9165C24.2339 11.6833 23.8357 11.5578 23.4276 11.5567H21.9138V11.132C21.9138 10.9494 21.8413 10.7742 21.7121 10.6451C21.583 10.5159 21.4078 10.4434 21.2252 10.4434H12.0768C11.9407 10.4418 11.8093 10.4933 11.7106 10.5871C11.6119 10.6808 11.5536 10.8094 11.5482 10.9454C11.5469 11.0134 11.5592 11.0809 11.5844 11.1441C11.6095 11.2073 11.647 11.2649 11.6946 11.3134C11.7422 11.3619 11.7991 11.4005 11.8618 11.4268C11.9245 11.4531 11.9918 11.4667 12.0598 11.4667H20.8905V15.9065C20.8905 16.0891 20.963 16.2643 21.0922 16.3934C21.2213 16.5226 21.3965 16.5951 21.5791 16.5951H25.7377L26.9729 17.7066V21.853H25.8531C25.7416 21.365 25.4678 20.9294 25.0764 20.6174C24.6851 20.3054 24.1994 20.1355 23.6989 20.1355C23.1984 20.1355 22.7128 20.3054 22.3214 20.6174C21.9301 20.9294 21.6563 21.365 21.5448 21.853H18.0992C17.9877 21.365 17.7138 20.9294 17.3225 20.6174C16.9311 20.3054 16.4455 20.1355 15.945 20.1355C15.4445 20.1355 14.9588 20.3054 14.5675 20.6174C14.1761 20.9294 13.9023 21.365 13.7908 21.853H12.0768C11.9406 21.8514 11.8092 21.9029 11.7105 21.9967C11.6118 22.0905 11.5536 22.219 11.5482 22.3551C11.5469 22.4231 11.5592 22.4906 11.5844 22.5538C11.6095 22.617 11.647 22.6745 11.6946 22.7231C11.7422 22.7716 11.7991 22.8102 11.8618 22.8365C11.9245 22.8628 11.9918 22.8763 12.0598 22.8763H13.7994C13.9179 23.3558 14.1936 23.7817 14.5825 24.0861C14.9713 24.3906 15.451 24.556 15.9448 24.556C16.4387 24.556 16.9183 24.3906 17.3072 24.0861C17.6961 23.7817 17.9717 23.3558 18.0903 22.8763H21.5535C21.672 23.3558 21.9477 23.7817 22.3365 24.0861C22.7254 24.3906 23.205 24.556 23.6989 24.556C24.1927 24.556 24.6724 24.3906 25.0612 24.0861C25.4501 23.7817 25.7258 23.3558 25.8443 22.8763H27.3076C27.4902 22.8763 27.6654 22.8038 27.7945 22.6747C27.9237 22.5455 27.9962 22.3704 27.9962 22.1878V17.5578C27.9962 17.4613 27.9758 17.3658 27.9366 17.2777C27.8973 17.1895 27.84 17.1106 27.7683 17.046ZM21.9138 15.5719V12.5799H23.4276C23.6269 12.5805 23.8213 12.6418 23.9848 12.7556C24.1484 12.8694 24.2734 13.0304 24.3432 13.2171L25.2154 15.5719H21.9138ZM15.9449 23.5325C15.7101 23.5325 15.4806 23.4629 15.2855 23.3325C15.0903 23.2021 14.9382 23.0167 14.8483 22.7999C14.7585 22.583 14.735 22.3443 14.7808 22.1141C14.8266 21.8839 14.9396 21.6724 15.1056 21.5064C15.2716 21.3404 15.4831 21.2274 15.7133 21.1816C15.9436 21.1358 16.1822 21.1593 16.3991 21.2492C16.6159 21.339 16.8013 21.4911 16.9317 21.6863C17.0621 21.8815 17.1317 22.111 17.1317 22.3457C17.1314 22.6604 17.0062 22.9621 16.7837 23.1846C16.5612 23.407 16.2595 23.5322 15.9449 23.5325ZM23.6989 23.5325C23.4642 23.5326 23.2347 23.463 23.0395 23.3325C22.8443 23.2021 22.6922 23.0168 22.6023 22.7999C22.5125 22.583 22.489 22.3444 22.5348 22.1141C22.5806 21.8839 22.6936 21.6724 22.8596 21.5064C23.0256 21.3404 23.2371 21.2274 23.4673 21.1816C23.6976 21.1358 23.9362 21.1593 24.1531 21.2492C24.3699 21.339 24.5553 21.4911 24.6857 21.6863C24.8161 21.8815 24.8857 22.111 24.8857 22.3457C24.8854 22.6604 24.7602 22.962 24.5377 23.1845C24.3152 23.407 24.0136 23.5322 23.6989 23.5325Z" fill="#EF262C" stroke="#EF262C" stroke-width="0.3"/>
<path id="Vector_2" d="M9.88134 14.3281H15.684C15.8197 14.3281 15.9499 14.2742 16.0458 14.1782C16.1418 14.0823 16.1957 13.9521 16.1957 13.8164C16.1957 13.6807 16.1418 13.5505 16.0458 13.4546C15.9499 13.3586 15.8197 13.3047 15.684 13.3047H9.88134C9.74563 13.3047 9.61547 13.3586 9.51951 13.4546C9.42354 13.5505 9.36963 13.6807 9.36963 13.8164C9.36963 13.9521 9.42354 14.0823 9.51951 14.1782C9.61547 14.2742 9.74563 14.3281 9.88134 14.3281Z" fill="#EF262C" stroke="#EF262C" stroke-width="0.3"/>
<path id="Vector_3" d="M16.1883 16.6582C16.1883 16.5225 16.1343 16.3923 16.0384 16.2964C15.9424 16.2004 15.8123 16.1465 15.6765 16.1465H7.50701C7.43943 16.1459 7.3724 16.1587 7.30979 16.1841C7.24718 16.2096 7.19023 16.2472 7.14222 16.2947C7.09422 16.3423 7.05612 16.3989 7.03011 16.4613C7.00411 16.5237 6.99072 16.5906 6.99072 16.6582C6.99072 16.7258 7.00411 16.7927 7.03011 16.8551C7.05612 16.9175 7.09422 16.9741 7.14222 17.0216C7.19023 17.0692 7.24718 17.1068 7.30979 17.1323C7.3724 17.1577 7.43943 17.1705 7.50701 17.1699H15.6765C15.8123 17.1699 15.9424 17.116 16.0384 17.02C16.1343 16.9241 16.1882 16.7939 16.1883 16.6582Z" fill="#EF262C" stroke="#EF262C" stroke-width="0.3"/>
<path id="Vector_4" d="M12.9515 19.5019C12.9515 19.4347 12.9383 19.3682 12.9126 19.3061C12.8869 19.244 12.8492 19.1876 12.8017 19.1401C12.7541 19.0926 12.6977 19.0549 12.6357 19.0292C12.5736 19.0035 12.507 18.9902 12.4399 18.9902H8.88335C8.74844 18.9914 8.61946 19.0459 8.52448 19.1417C8.42951 19.2375 8.37622 19.367 8.37622 19.5019C8.37622 19.6368 8.42951 19.7663 8.52448 19.8621C8.61946 19.958 8.74844 20.0124 8.88335 20.0136H12.4399C12.5756 20.0136 12.7057 19.9597 12.8017 19.8637C12.8976 19.7678 12.9515 19.6376 12.9515 19.5019Z" fill="#EF262C" stroke="#EF262C" stroke-width="0.3"/>
</g>
</g>
</svg>
