<svg width="36" height="36" viewBox="0 0 36 36" fill="none" xmlns="http://www.w3.org/2000/svg">
<path d="M10.6245 14.623C11.2458 14.623 11.7495 14.1194 11.7495 13.498C11.7495 12.8767 11.2458 12.373 10.6245 12.373C10.0032 12.373 9.49951 12.8767 9.49951 13.498C9.49951 14.1194 10.0032 14.623 10.6245 14.623Z" fill="#767676"/>
<path d="M19.1216 14.623C19.7429 14.623 20.2466 14.1194 20.2466 13.498C20.2466 12.8767 19.7429 12.373 19.1216 12.373C18.5003 12.373 17.9966 12.8767 17.9966 13.498C17.9966 14.1194 18.5003 14.623 19.1216 14.623Z" fill="#767676"/>
<path d="M24.75 15.75C19.7797 15.75 15.75 19.7797 15.75 24.75C15.75 29.7203 19.7797 33.75 24.75 33.75C29.7203 33.75 33.75 29.7203 33.75 24.75C33.75 19.7797 29.7203 15.75 24.75 15.75ZM30.1466 23.094L25.7119 27.5276C25.1966 28.0429 24.5126 28.3264 23.7836 28.3264C23.0546 28.3264 22.3706 28.0429 21.8554 27.5276L20.6021 26.2744C20.1622 25.8356 20.1622 25.1224 20.6021 24.6836C21.042 24.2449 21.7541 24.2449 22.1929 24.6836L23.4461 25.9369C23.6914 26.1821 23.8804 26.181 24.1211 25.9369L28.5559 21.5021C28.9957 21.0634 29.7079 21.0634 30.1466 21.5021C30.5854 21.942 30.5854 22.6553 30.1466 23.094Z" fill="#767676"/>
<path d="M16.2067 33.7505C16.2067 34.3715 15.7027 34.8755 15.0817 34.8755H7.58469C6.19194 34.8755 4.85544 34.2849 3.91944 33.2544C2.98232 32.2239 2.52107 30.8379 2.65269 29.4508L4.24682 12.7175C4.44707 10.6115 6.2167 9.00391 8.3317 9.00391H20.9137C22.5224 9.00391 23.9197 9.91741 24.5913 11.2787C24.9288 11.9627 24.4226 12.7727 23.6621 12.8447H23.6542C23.2098 12.8874 22.7688 12.6703 22.5686 12.2709C22.2637 11.6612 21.6359 11.2539 20.9126 11.2539H8.3317C7.37657 11.2539 6.57782 11.9795 6.48669 12.9313L4.89257 29.6657C4.81944 30.4352 5.06469 31.172 5.58444 31.7435C6.10307 32.3139 6.81407 32.6278 7.58469 32.6278H15.0817C15.7027 32.6278 16.2067 33.1318 16.2067 33.7528V33.7505Z" fill="#767676"/>
<path d="M24.75 34.875C19.1678 34.875 14.625 30.3334 14.625 24.75C14.625 19.1666 19.1678 14.625 24.75 14.625C30.3322 14.625 34.875 19.1666 34.875 24.75C34.875 30.3334 30.3322 34.875 24.75 34.875ZM24.75 16.875C20.4075 16.875 16.875 20.4086 16.875 24.75C16.875 29.0914 20.4075 32.625 24.75 32.625C29.0925 32.625 32.625 29.0914 32.625 24.75C32.625 20.4086 29.0925 16.875 24.75 16.875Z" fill="#767676"/>
<path d="M21.3728 10.1272H19.1228V7.875C19.1228 5.39325 17.1046 3.375 14.6228 3.375C12.1411 3.375 10.1228 5.39325 10.1228 7.875V10.1272H7.8728V7.875C7.8728 4.15237 10.9002 1.125 14.6228 1.125C18.3454 1.125 21.3728 4.15237 21.3728 7.875V10.1272Z" fill="#767676"/>
</svg>
