<svg width="77" height="77" viewBox="0 0 77 77" fill="none" xmlns="http://www.w3.org/2000/svg">
<g clip-path="url(#clip0_1_7177)">
<path d="M1.19241 39.3507C1.85097 40.0092 2.91869 40.0092 3.57724 39.3507C4.23579 38.6921 4.23579 37.6244 3.57724 36.9659C2.91869 36.3073 1.85097 36.3073 1.19241 36.9659C0.533862 37.6244 0.533862 38.6921 1.19241 39.3507Z" fill="#B6B6B6"/>
<path d="M10.7317 39.3507C11.3903 40.0092 12.458 40.0092 13.1165 39.3507C13.7751 38.6921 13.7751 37.6244 13.1165 36.9659C12.458 36.3073 11.3903 36.3073 10.7317 36.9659C10.0732 37.6244 10.0732 38.6921 10.7317 39.3507Z" fill="#B6B6B6"/>
<path d="M20.271 39.3507C20.9296 40.0092 21.9973 40.0092 22.6559 39.3507C23.3144 38.6921 23.3144 37.6244 22.6559 36.9659C21.9973 36.3073 20.9296 36.3073 20.271 36.9659C19.6125 37.6244 19.6125 38.6921 20.271 39.3507Z" fill="#B6B6B6"/>
<path d="M29.8103 39.3507C30.4689 40.0092 31.5366 40.0092 32.1952 39.3507C32.8537 38.6921 32.8537 37.6244 32.1952 36.9659C31.5366 36.3073 30.4689 36.3073 29.8103 36.9659C29.1518 37.6244 29.1518 38.6921 29.8103 39.3507Z" fill="#B6B6B6"/>
<path d="M39.3496 39.3507C40.0082 40.0092 41.0759 40.0092 41.7345 39.3507C42.393 38.6921 42.393 37.6244 41.7345 36.9659C41.0759 36.3073 40.0082 36.3073 39.3496 36.9659C38.6911 37.6244 38.6911 38.6921 39.3496 39.3507Z" fill="#B6B6B6"/>
<path d="M48.8889 39.3507C49.5475 40.0092 50.6152 40.0092 51.2738 39.3507C51.9323 38.6921 51.9323 37.6244 51.2738 36.9659C50.6152 36.3073 49.5475 36.3073 48.8889 36.9659C48.2304 37.6244 48.2304 38.6921 48.8889 39.3507Z" fill="#B6B6B6"/>
<path d="M58.4283 39.3507C59.0868 40.0092 60.1545 40.0092 60.8131 39.3507C61.4716 38.6921 61.4716 37.6244 60.8131 36.9659C60.1545 36.3073 59.0868 36.3073 58.4283 36.9659C57.7697 37.6244 57.7697 38.6921 58.4283 39.3507Z" fill="#B6B6B6"/>
<path d="M67.9676 39.3507C68.6261 40.0092 69.6938 40.0092 70.3524 39.3507C71.0109 38.6921 71.0109 37.6244 70.3524 36.9659C69.6938 36.3073 68.6261 36.3073 67.9676 36.9659C67.309 37.6244 67.309 38.6921 67.9676 39.3507Z" fill="#B6B6B6"/>
</g>
<defs>
<clipPath id="clip0_1_7177">
<rect width="53.9625" height="53.9625" fill="white" transform="translate(38.1572) rotate(45)"/>
</clipPath>
</defs>
</svg>
