<svg width="36" height="36" viewBox="0 0 36 36" fill="none" xmlns="http://www.w3.org/2000/svg">
<path d="M26.775 33.75H9.22498C5.51248 33.75 2.47498 30.7125 2.47498 27V26.775L3.14998 8.775C3.26248 5.0625 6.29998 2.25 9.89998 2.25H26.1C29.7 2.25 32.7375 5.0625 32.85 8.775L33.525 26.775C33.6375 28.575 32.9625 30.2625 31.725 31.6125C30.4875 32.9625 28.8 33.75 27 33.75C27 33.75 26.8875 33.75 26.775 33.75ZM9.89998 4.5C7.42498 4.5 5.51248 6.4125 5.39998 8.775L4.72498 27C4.72498 29.475 6.74998 31.5 9.22498 31.5H27C28.2375 31.5 29.3625 30.9375 30.15 30.0375C30.9375 29.1375 31.3875 28.0125 31.3875 26.775L30.7125 8.775C30.6 6.3 28.6875 4.5 26.2125 4.5H9.89998Z" fill="#F83B0A"/>
<path d="M18 15.75C13.6125 15.75 10.125 12.2625 10.125 7.875C10.125 7.2 10.575 6.75 11.25 6.75C11.925 6.75 12.375 7.2 12.375 7.875C12.375 11.025 14.85 13.5 18 13.5C21.15 13.5 23.625 11.025 23.625 7.875C23.625 7.2 24.075 6.75 24.75 6.75C25.425 6.75 25.875 7.2 25.875 7.875C25.875 12.2625 22.3875 15.75 18 15.75Z" fill="#F83B0A"/>
</svg>
