<svg width="39" height="39" viewBox="0 0 39 39" fill="none" xmlns="http://www.w3.org/2000/svg">
<circle cx="19.26" cy="19.26" r="18.76" fill="white" stroke="#E5E8EC"/>
<path d="M23.5322 14.8528C23.7874 15.108 23.9788 15.3997 24.1064 15.7278C24.234 16.0468 24.2979 16.3749 24.2979 16.7122C24.2979 17.0494 24.234 17.3821 24.1064 17.7102C23.9788 18.0292 23.7874 18.3163 23.5322 18.5715L18.7881 23.3157L14.0439 18.5715C13.7887 18.3163 13.5973 18.0292 13.4697 17.7102C13.3421 17.3821 13.2783 17.0494 13.2783 16.7122C13.2783 16.3749 13.3421 16.0468 13.4697 15.7278C13.5973 15.3997 13.7887 15.108 14.0439 14.8528C14.2992 14.5976 14.5863 14.4062 14.9053 14.2786C15.2334 14.151 15.5661 14.0872 15.9033 14.0872C16.2406 14.0872 16.5687 14.151 16.8877 14.2786C17.2067 14.4062 17.4984 14.5976 17.7627 14.8528L18.3779 15.468C18.4873 15.5865 18.624 15.6458 18.7881 15.6458C18.9521 15.6458 19.0889 15.5865 19.1982 15.468L19.8135 14.8528C20.0778 14.5976 20.3695 14.4062 20.6885 14.2786C21.0075 14.151 21.3356 14.0872 21.6729 14.0872C22.0101 14.0872 22.3382 14.151 22.6572 14.2786C22.9854 14.4062 23.277 14.5976 23.5322 14.8528ZM24.3525 14.0325C23.988 13.6588 23.5687 13.3808 23.0947 13.1985C22.6299 13.0162 22.1559 12.925 21.6729 12.925C21.1898 12.925 20.7158 13.0162 20.251 13.1985C19.7861 13.3808 19.3669 13.6588 18.9932 14.0325L18.7881 14.2375L18.583 14.0325C18.2093 13.6588 17.79 13.3808 17.3252 13.1985C16.8604 13.0162 16.3864 12.925 15.9033 12.925C15.4202 12.925 14.9417 13.0162 14.4678 13.1985C14.0029 13.3808 13.5882 13.6588 13.2236 14.0325C12.8499 14.3971 12.5674 14.8163 12.376 15.2903C12.1937 15.7551 12.1025 16.2291 12.1025 16.7122C12.1025 17.1952 12.1937 17.6737 12.376 18.1477C12.5674 18.6125 12.8499 19.0273 13.2236 19.3918L18.3779 24.5461C18.4873 24.6646 18.624 24.7239 18.7881 24.7239C18.9521 24.7239 19.0889 24.6646 19.1982 24.5461L24.3525 19.3918C24.7262 19.0273 25.0042 18.6125 25.1865 18.1477C25.3779 17.6737 25.4736 17.1952 25.4736 16.7122C25.4736 16.2291 25.3779 15.7551 25.1865 15.2903C25.0042 14.8254 24.7262 14.4062 24.3525 14.0325Z" fill="#515D66"/>
</svg>
