<svg width="55" height="25" viewBox="0 0 55 25" fill="none" xmlns="http://www.w3.org/2000/svg">
<path d="M0 0H49C52.3137 0 55 2.68629 55 6V21C55 23.2091 53.2091 25 51 25H6C2.68629 25 0 22.3137 0 19V0Z" fill="#F83B0A"/>
<path d="M13.8013 8.27273H15.5868L17.7218 12.1335H17.807L19.9419 8.27273H21.7275L18.5527 13.7443V17H16.976V13.7443L13.8013 8.27273ZM22.8471 17V8.27273H28.5233V9.59801H24.4281V11.9673H28.2292V13.2926H24.4281V15.6747H28.5574V17H22.8471ZM37.3081 8.27273V17H35.9018L31.7896 11.0554H31.7172V17H30.1362V8.27273H31.551L35.6589 14.2216H35.7356V8.27273H37.3081ZM40.6117 8.27273V17H39.0307V8.27273H40.6117ZM39.8233 7.34375C39.5762 7.34375 39.3645 7.26278 39.1884 7.10085C39.0151 6.93608 38.9284 6.73864 38.9284 6.50852C38.9284 6.27557 39.0165 6.07812 39.1926 5.91619C39.3688 5.75142 39.579 5.66903 39.8233 5.66903C40.0676 5.66903 40.2765 5.75142 40.4498 5.91619C40.6259 6.07812 40.714 6.27557 40.714 6.50852C40.714 6.73864 40.6259 6.93608 40.4498 7.10085C40.2765 7.26278 40.0676 7.34375 39.8233 7.34375Z" fill="white"/>
</svg>
