<svg width="28" height="26" viewBox="0 0 28 26" fill="none" xmlns="http://www.w3.org/2000/svg">
<path d="M5.95738 17.175C4.56302 17.4417 3.21539 16.5277 2.94737 15.1336L1.49422 7.57533C1.20226 6.05674 2.19547 4.59047 3.71434 4.3C5.84981 3.89161 8.81634 3.32428 11.0644 2.89435C13.3385 2.45946 16.3582 1.93856 18.5075 1.57543C20.0037 1.32266 21.423 2.31408 21.7095 3.8041C21.8104 4.32876 21.9183 4.89041 22.0259 5.44985" stroke="#F83B0A" stroke-width="1.5" stroke-linecap="round"/>
<path d="M6.10693 9.68022V18.9103C6.10693 20.3263 7.25788 21.4742 8.67764 21.4742H8.992C9.52827 21.4742 9.96299 21.9089 9.96299 22.4452C9.96299 23.5023 10.0524 25.0662 11.112 25.0366C11.8308 25.0165 12.0877 24.1401 12.4786 23.5382L12.991 22.7492C13.5074 21.954 14.3912 21.4742 15.3393 21.4742H23.0736C25.0613 21.4742 26.6726 19.8674 26.6726 17.885V9.76561C26.6726 7.82719 25.4022 6.1375 23.4592 6.09074C21.3657 6.04036 18.4467 6.09075 16.3898 6.09075H9.70539C7.71772 6.09075 6.10693 7.69781 6.10693 9.68022Z" stroke="#F83B0A" stroke-width="1.5" stroke-linecap="round"/>
<ellipse cx="11.2484" cy="13.7824" rx="1.28535" ry="1.28195" fill="#F83B0A"/>
<ellipse cx="16.3897" cy="13.7824" rx="1.28535" ry="1.28195" fill="#F83B0A"/>
<ellipse cx="21.5312" cy="13.7824" rx="1.28535" ry="1.28195" fill="#F83B0A"/>
</svg>
