<svg width="22" height="26" viewBox="0 0 22 26" fill="none" xmlns="http://www.w3.org/2000/svg">
<path fill-rule="evenodd" clip-rule="evenodd" d="M8.67688 15.3555C9.26169 15.3557 9.73538 15.8302 9.73548 16.415C9.73548 17 9.26175 17.4744 8.67688 17.4746C8.09184 17.4746 7.61731 17.0001 7.61731 16.415C7.61741 15.8301 8.0919 15.3555 8.67688 15.3555ZM8.76868 11.5244C9.03607 11.2081 9.50996 11.1682 9.8263 11.4355L15.3243 16.083C15.6406 16.3504 15.6805 16.8243 15.4132 17.1406C15.1458 17.4569 14.6719 17.4968 14.3556 17.2295L8.85755 12.5811C8.54152 12.3136 8.50145 11.8406 8.76868 11.5244ZM12.9142 9C13.499 9.00023 13.9728 9.47467 13.9728 10.0596C13.9726 10.6444 13.499 11.1179 12.9142 11.1182C12.3292 11.1182 11.8548 10.6445 11.8546 10.0596C11.8546 9.47453 12.3291 9 12.9142 9ZM6.17688 9.33398C6.44428 9.01764 6.91816 8.97772 7.2345 9.24512L7.74036 9.67285C8.05638 9.9403 8.09555 10.4133 7.82825 10.7295C7.56086 11.0457 7.08792 11.0857 6.77161 10.8184L6.26575 10.3906C5.94972 10.1233 5.90983 9.65025 6.17688 9.33398Z" fill="#F83B0A"/>
<path d="M1 16.2498V7.44689C1 5.10711 2.96513 3.27467 5.2392 3.49391L6.34923 3.60093C7.29689 3.6923 8.20196 3.17777 8.62764 2.30566C9.47738 0.564779 11.9026 0.564779 12.7524 2.30566C13.178 3.17777 14.0831 3.6923 15.0308 3.60093L16.1408 3.49391C18.4149 3.27467 20.38 5.10712 20.38 7.44689V16.2498C20.38 17.4224 19.874 18.5351 18.9976 19.2895L13.1836 24.2942C11.7419 25.5353 9.63808 25.5353 8.1964 24.2942L2.3824 19.2895C1.50602 18.5351 1 17.4224 1 16.2498Z" stroke="#F83B0A" stroke-width="1.5" stroke-linecap="round"/>
<path d="M1 7.44689C1 5.10711 2.96513 3.27467 5.2392 3.49391L6.34923 3.60093C7.29689 3.6923 8.20196 3.17777 8.62764 2.30566C9.47738 0.564779 11.9026 0.564779 12.7524 2.30566C13.178 3.17777 14.0831 3.6923 15.0308 3.60093L16.1408 3.49391C18.4149 3.27467 20.38 5.10712 20.38 7.44689" stroke="#F83B0A" stroke-width="1.5" stroke-linecap="square"/>
</svg>
