<svg width="21" height="26" viewBox="0 0 21 26" fill="none" xmlns="http://www.w3.org/2000/svg">
<path d="M7.59999 19.6001L3.68871 24.6289C3.57121 24.78 3.67887 25.0001 3.87026 25.0001H5.70035C5.76392 25.0001 5.82466 24.9738 5.86814 24.9274L9.19557 21.3781C9.29883 21.268 9.47839 21.2855 9.5584 21.4136L11.8 25.0001" stroke="#F83B0A" stroke-width="1.5" stroke-linecap="round"/>
<path d="M18.062 18.443L17.6114 17.8434V17.8434L18.062 18.443ZM1.01352 8.18184L0.264562 8.14229V8.14229L1.01352 8.18184ZM1.69442 5.1529L2.38638 5.4422L1.69442 5.1529ZM2.56801 4.86425L2.18125 5.50683V5.50683L2.56801 4.86425ZM20.0979 16.2296L19.4629 15.8305V15.8305L20.0979 16.2296ZM19.8678 15.2767L20.2545 14.6341V14.6341L19.8678 15.2767ZM16 2.8L16.7161 2.57696L16.5229 1.9567L15.8814 2.05944L16 2.8ZM18.8852 14.5846L19.1082 15.3006L20.5404 14.8546L20.3173 14.1385L19.6013 14.3615L18.8852 14.5846ZM10.7875 9.0787L10.3635 9.69735L11.6008 10.5454L12.0248 9.92671L11.4061 9.50271L10.7875 9.0787ZM15.1859 0.35688C14.8307 0.143769 14.37 0.258943 14.1569 0.614128C13.9438 0.969313 14.0589 1.43001 14.4141 1.64312L14.8 1L15.1859 0.35688ZM17.4141 3.44312C17.7693 3.65623 18.23 3.54106 18.4431 3.18587C18.6562 2.83069 18.5411 2.36999 18.1859 2.15688L17.8 2.8L17.4141 3.44312ZM3.11614 4.10384L2.37557 4.22245L2.61278 5.70357L3.35334 5.58497L3.23474 4.8444L3.11614 4.10384ZM20.0979 16.2296L19.4629 15.8305C18.9731 16.6098 18.3486 17.2894 17.6114 17.8434L18.062 18.443L18.5125 19.0426C19.3965 18.3783 20.1458 17.5627 20.7329 16.6288L20.0979 16.2296ZM18.062 18.443L17.6114 17.8434C16.7053 18.5244 15.6426 19.0052 14.4804 19.2542L14.6375 19.9876L14.7947 20.7209C16.1614 20.428 17.4259 19.8591 18.5125 19.0426L18.062 18.443ZM14.6375 19.9876L14.4804 19.2542C13.3177 19.5034 12.0771 19.5159 10.829 19.2849L10.6925 20.0224L10.556 20.7599C11.9879 21.0249 13.4284 21.0137 14.7947 20.7209L14.6375 19.9876ZM10.6925 20.0224L10.829 19.2849C9.58067 19.0539 8.35172 18.5842 7.21419 17.8995L6.82743 18.5421L6.44066 19.1847C7.72642 19.9585 9.12417 20.4949 10.556 20.7599L10.6925 20.0224ZM6.82743 18.5421L7.21419 17.8995C6.07665 17.2148 5.05595 16.3305 4.21146 15.2974L3.63078 15.7721L3.0501 16.2467C4.00316 17.4126 5.1549 18.4108 6.44066 19.1847L6.82743 18.5421ZM3.63078 15.7721L4.21146 15.2974C3.36697 14.2643 2.71756 13.1056 2.29824 11.8895L1.58921 12.134L0.880179 12.3785C1.359 13.7671 2.09705 15.0808 3.0501 16.2467L3.63078 15.7721ZM1.58921 12.134L2.29824 11.8895C1.87895 10.6736 1.69883 9.4269 1.76248 8.22138L1.01352 8.18184L0.264562 8.14229C0.19021 9.55058 0.401331 10.9898 0.880179 12.3785L1.58921 12.134ZM1.01352 8.18184L1.76248 8.22138C1.81424 7.24088 2.02638 6.30326 2.38638 5.4422L1.69442 5.1529L1.00246 4.8636C0.573671 5.88919 0.325061 6.99638 0.264562 8.14229L1.01352 8.18184ZM1.69442 5.1529L2.38638 5.4422C2.37682 5.46505 2.34674 5.50047 2.29723 5.51637C2.25047 5.53138 2.20689 5.52226 2.18125 5.50683L2.56801 4.86425L2.95477 4.22166C2.25196 3.79865 1.33231 4.07466 1.00246 4.8636L1.69442 5.1529ZM20.0979 16.2296L20.7329 16.6288C21.1689 15.9351 20.9199 15.0345 20.2545 14.6341L19.8678 15.2767L19.481 15.9193C19.4585 15.9057 19.4527 15.8902 19.4513 15.8845C19.4493 15.8765 19.4478 15.8545 19.4629 15.8305L20.0979 16.2296ZM2.56801 4.86425L2.18125 5.50683L19.481 15.9193L19.8678 15.2767L20.2545 14.6341L2.95477 4.22166L2.56801 4.86425ZM16 2.8L15.2839 3.02304L18.8852 14.5846L19.6013 14.3615L20.3173 14.1385L16.7161 2.57696L16 2.8ZM11.4061 9.50271L12.0248 9.92671L16.6186 3.224L16 2.8L15.3814 2.376L10.7875 9.0787L11.4061 9.50271ZM14.8 1L14.4141 1.64312L17.4141 3.44312L17.8 2.8L18.1859 2.15688L15.1859 0.35688L14.8 1ZM3.23474 4.8444L3.35334 5.58497L16.1186 3.54056L16 2.8L15.8814 2.05944L3.11614 4.10384L3.23474 4.8444Z" fill="#F83B0A"/>
</svg>
