<svg width="20" height="21" viewBox="0 0 20 21" fill="none" xmlns="http://www.w3.org/2000/svg">
<path d="M10 20C15.5228 20 20 15.5228 20 10C20 4.47715 15.5228 0 10 0C4.47715 0 0 4.47715 0 10C0 15.5228 4.47715 20 10 20Z" fill="#FFD54F"/>
<path d="M17.9625 0.802734C17.48 0.802734 17.025 0.965234 16.6667 1.24523C16.3084 0.965234 15.8534 0.802734 15.3709 0.802734C14.2475 0.802734 13.3334 1.67607 13.3334 2.7494C13.3334 4.4219 15.8125 6.2369 16.3084 6.58357C16.4167 6.65857 16.5417 6.69607 16.6667 6.69607C16.7917 6.69607 16.9167 6.65857 17.025 6.58357C17.5209 6.23607 20 4.4219 20 2.7494C20 1.67607 19.0859 0.802734 17.9625 0.802734Z" fill="#E53935"/>
<path d="M4.62917 14.1367C4.14667 14.1367 3.69167 14.2992 3.33333 14.5792C2.975 14.2992 2.52 14.1367 2.0375 14.1367C0.914167 14.1367 0 15.0101 0 16.0834C0 17.7559 2.47917 19.5709 2.975 19.9176C3.08333 19.9926 3.20833 20.0301 3.33333 20.0301C3.45833 20.0301 3.58333 19.9926 3.69167 19.9176C4.1875 19.5701 6.66667 17.7559 6.66667 16.0834C6.66667 15.0101 5.7525 14.1367 4.62917 14.1367Z" fill="#E53935"/>
<path d="M7.70829 9.37435C7.36329 9.37435 7.08329 9.09435 7.08329 8.74935C7.08329 8.29018 6.70996 7.91602 6.24996 7.91602C5.78996 7.91602 5.41663 8.29018 5.41663 8.74935C5.41663 9.09435 5.13663 9.37435 4.79163 9.37435C4.44663 9.37435 4.16663 9.09435 4.16663 8.74935C4.16663 7.60102 5.10079 6.66602 6.24996 6.66602C7.39913 6.66602 8.33329 7.60102 8.33329 8.74935C8.33329 9.09435 8.05329 9.37435 7.70829 9.37435Z" fill="#6D4C41"/>
<path d="M15.2083 9.37435C14.8633 9.37435 14.5833 9.09435 14.5833 8.74935C14.5833 8.29018 14.21 7.91602 13.75 7.91602C13.29 7.91602 12.9166 8.29018 12.9166 8.74935C12.9166 9.09435 12.6366 9.37435 12.2916 9.37435C11.9466 9.37435 11.6666 9.09435 11.6666 8.74935C11.6666 7.60102 12.6008 6.66602 13.75 6.66602C14.8991 6.66602 15.8333 7.60102 15.8333 8.74935C15.8333 9.09435 15.5533 9.37435 15.2083 9.37435Z" fill="#6D4C41"/>
<path d="M9.99991 14.9987C8.17991 14.9987 6.46991 14.2903 5.18325 13.0028C4.93908 12.7587 4.93908 12.3628 5.18325 12.1187C5.42741 11.8745 5.82325 11.8745 6.06741 12.1187C7.11741 13.1703 8.51408 13.7487 9.99991 13.7487C11.4857 13.7487 12.8824 13.1703 13.9332 12.1195C14.1774 11.8753 14.5732 11.8753 14.8174 12.1195C15.0616 12.3637 15.0616 12.7595 14.8174 13.0037C13.5299 14.2903 11.8199 14.9987 9.99991 14.9987Z" fill="#6D4C41"/>
</svg>
