<svg width="146" height="31" viewBox="0 0 146 31" fill="none" xmlns="http://www.w3.org/2000/svg">
<g id="LogoListensi">
<path id="Vector" d="M142.505 0C140.155 0 138.186 1.66152 137.78 3.9508C137.365 6.28381 138.743 7.94533 141.096 7.94533C143.449 7.94533 145.362 6.33066 145.783 3.9508C146.189 1.66152 144.811 0 142.505 0ZM144.648 9.33826H137.095L133.401 30.1229H140.955L144.648 9.33826ZM134.726 10.4595C131.476 8.88853 129.912 8.52936 126.974 8.52936C122.498 8.52936 118.37 11.4027 117.747 14.9037C117.357 17.1025 117.829 18.764 119.176 19.8415C119.805 20.3787 121.123 21.1001 122.668 21.8153C124.341 22.5774 124.75 23.0739 124.536 24.014C124.316 25.0009 123.102 25.7193 121.853 25.6318C120.195 25.5412 118.65 24.8229 116.832 23.3425L114.108 28.2365C117.021 30.1667 119.163 30.8413 122.554 30.8413C124.407 30.8413 126.719 30.3009 128.311 29.4952C130.787 28.2834 132.253 26.397 132.7 23.8828C132.986 22.265 132.586 20.6941 131.58 19.7509C130.818 18.942 130.444 18.764 127.405 17.2805C125.813 16.5621 125.404 16.0687 125.584 15.3066C125.772 14.4977 126.833 13.87 127.874 13.87C129.5 13.87 129.84 14.0043 132.432 15.4409L134.719 10.4564L134.726 10.4595ZM92.9043 10.144C93.8292 11.8056 93.8229 12.6145 92.9704 17.4179L90.7147 30.1229H98.268L100.627 16.8339C102.087 15.4878 103.32 14.9037 104.544 14.9037C106.623 14.9037 107.328 16.025 106.859 18.6734L104.827 30.1229H112.38L114.806 16.4747C115.69 11.4901 113.541 8.57309 108.973 8.57309C106.035 8.57309 103.179 9.87545 101.002 12.2085C101.131 10.4564 100.719 9.46944 99.6113 8.57309L92.9106 10.144H92.9043ZM77.1623 17.0587C77.8921 14.7257 79.6412 13.2891 81.7647 13.2891C83.8882 13.2891 85.1717 14.7257 84.8949 17.0587H77.1623ZM88.0691 20.8315L90.7651 17.8676C91.7151 12.2553 88.4906 8.52936 82.655 8.52936C76.4136 8.52936 70.5717 13.4234 69.48 19.5729C68.3003 26.2158 72.0471 30.8413 78.6031 30.8413C82.7179 30.8413 86.2791 29.6295 89.2047 27.159L88.3459 23.0739C85.587 24.6012 83.7749 25.1384 81.1953 25.1384C78.6157 25.1384 76.5646 23.2082 76.7156 20.8284H88.0659L88.0691 20.8315ZM70.2571 9.33826H64.1069L65.3746 2.96388H61.6656C59.6743 7.81104 57.3117 9.6537 52.6275 10.0566L51.8064 14.6789H55.83L54.4427 22.4899C53.9708 25.1384 53.9708 26.1721 54.3703 27.4745C55.0058 29.4952 57.1513 30.6632 60.2248 30.6632C63.2984 30.6632 65.7993 30.0792 68.4796 28.7331L68.1493 23.9734C66.2901 24.5106 65.3998 24.6917 64.4026 24.6917C62.0966 24.6917 61.5398 23.7485 62.0589 20.8315L63.1505 14.682H69.3007L70.2508 9.33826H70.2571ZM51.8788 10.4595C48.6291 8.88853 47.0656 8.52936 44.1273 8.52936C39.6507 8.52936 35.5233 11.4027 34.9005 14.9037C34.5104 17.1025 34.9822 18.764 36.3287 19.8415C36.9547 20.3787 38.276 21.1001 39.8206 21.8153C41.4942 22.5774 41.9032 23.0739 41.6893 24.014C41.4691 25.0009 40.2548 25.7193 39.0058 25.6318C37.348 25.5412 35.8033 24.8229 33.985 23.3425L31.2607 28.2365C34.1738 30.1667 36.3161 30.8413 39.7074 30.8413C41.5603 30.8413 43.8725 30.3009 45.4643 29.4952C47.9402 28.2834 49.4061 26.397 49.8528 23.8828C50.1391 22.265 49.7396 20.6941 48.7329 19.7509C47.9716 18.942 47.5972 18.764 44.5583 17.2805C42.9665 16.5621 42.5575 16.0687 42.7369 15.3066C42.9256 14.4977 43.9858 13.87 45.0271 13.87C46.6535 13.87 46.9932 14.0043 49.5854 15.4409L51.8725 10.4564L51.8788 10.4595ZM30.9901 0C28.6401 0 26.6708 1.66152 26.265 3.9508C25.8497 6.28381 27.2276 7.94533 29.5808 7.94533C31.9339 7.94533 33.8466 6.33066 34.2681 3.9508C34.674 1.66152 33.2961 0 30.9901 0ZM33.1325 9.33826H25.5792L21.8859 30.1229H29.4392L33.1325 9.33826ZM13.2819 0.671481H5.23161L0 30.1229H19.4447L21.4927 23.4331H9.23632L13.2819 0.671481Z" fill="#F83B0A"/>
</g>
</svg>
