<svg width="29" height="29" viewBox="0 0 29 29" fill="none" xmlns="http://www.w3.org/2000/svg">
<path d="M26.8665 12.989C26.3663 12.989 25.9603 12.583 25.9603 12.0828C25.9603 8.61244 24.6095 5.35118 22.1565 2.89705C21.8025 2.54305 21.8025 1.96912 22.1565 1.61511C22.5105 1.26111 23.0844 1.26111 23.4387 1.61511C26.2335 4.41108 27.7728 8.12923 27.7728 12.0828C27.7728 12.583 27.3668 12.989 26.8665 12.989Z" fill="#F83B0A"/>
<path d="M2.0957 12.9899C1.59545 12.9899 1.18945 12.5839 1.18945 12.0836C1.18945 8.13007 2.72893 4.41193 5.5249 1.61707C5.8789 1.26306 6.45305 1.26306 6.80705 1.61707C7.16106 1.97107 7.16106 2.54522 6.80705 2.89922C4.35292 5.35203 3.00195 8.61329 3.00195 12.0836C3.00195 12.5839 2.59596 12.9899 2.0957 12.9899Z" fill="#F83B0A"/>
<path d="M14.4812 29C11.9824 29 9.94995 26.9676 9.94995 24.4688C9.94995 23.9685 10.3559 23.5625 10.8562 23.5625C11.3565 23.5625 11.7625 23.9685 11.7625 24.4688C11.7625 25.9684 12.9816 27.1875 14.4812 27.1875C15.9806 27.1875 17.2 25.9684 17.2 24.4688C17.2 23.9685 17.6059 23.5625 18.1062 23.5625C18.6065 23.5625 19.0125 23.9685 19.0125 24.4688C19.0125 26.9676 16.98 29 14.4812 29Z" fill="#5A5A5A"/>
<path d="M24.4499 25.375H4.51244C3.34621 25.375 2.39771 24.4265 2.39771 23.2605C2.39771 22.6416 2.66719 22.0558 3.13735 21.6533C4.97507 20.1006 6.02271 17.8436 6.02271 15.4523V12.0833C6.02271 7.41926 9.81696 3.625 14.4812 3.625C19.1452 3.625 22.9394 7.41926 22.9394 12.0833V15.4523C22.9394 17.8436 23.9871 20.1006 25.8129 21.6449C26.295 22.0558 26.5644 22.6416 26.5644 23.2605C26.5644 24.4265 25.6159 25.375 24.4499 25.375ZM14.4812 5.4375C10.8161 5.4375 7.83521 8.41843 7.83521 12.0833V15.4523C7.83521 18.3774 6.55327 21.1398 4.31906 23.0284C4.2768 23.0647 4.21021 23.1397 4.21021 23.2605C4.21021 23.4247 4.34805 23.5625 4.51244 23.5625H24.4499C24.6141 23.5625 24.7519 23.4247 24.7519 23.2605C24.7519 23.1397 24.6856 23.0647 24.6455 23.0308C22.4089 21.1398 21.1269 18.3774 21.1269 15.4523V12.0833C21.1269 8.41843 18.146 5.4375 14.4812 5.4375Z" fill="#5A5A5A"/>
<path d="M14.4812 5.4375C13.9809 5.4375 13.575 5.0315 13.575 4.53125V0.90625C13.575 0.405998 13.9809 0 14.4812 0C14.9815 0 15.3875 0.405998 15.3875 0.90625V4.53125C15.3875 5.0315 14.9815 5.4375 14.4812 5.4375Z" fill="#5A5A5A"/>
</svg>
