<svg width="29" height="29" viewBox="0 0 29 29" fill="none" xmlns="http://www.w3.org/2000/svg">
<path d="M27.6819 15.8184C27.2864 15.8184 27.0228 16.082 27.0228 16.4774V25.0456C27.0228 25.4411 26.7591 25.7047 26.3637 25.7047H2.63639C2.24093 25.7047 1.97732 25.441 1.97732 25.0456V16.4774C1.97732 16.082 1.71366 15.8184 1.31825 15.8184C0.922842 15.8184 0.65918 16.082 0.65918 16.4774V25.0456C0.65918 26.1661 1.51598 27.0229 2.63645 27.0229H26.3637C27.4842 27.0229 28.341 26.1661 28.341 25.0456V16.4774C28.341 16.082 28.0773 15.8184 27.6819 15.8184Z" fill="#5A5A5A"/>
<path d="M27.0227 6.5918H1.97727C0.856803 6.5918 0 7.4486 0 8.56906V12.7873C0 13.7099 0.65907 14.5009 1.51593 14.6986L11.8637 17.0054V19.1145C11.8637 19.5099 12.1273 19.7735 12.5227 19.7735H16.4773C16.8727 19.7735 17.1363 19.5099 17.1363 19.1145V17.0054L27.4841 14.6986C28.3409 14.5009 29 13.7099 29 12.7872V8.56901C29 7.4486 28.1432 6.5918 27.0227 6.5918ZM15.8182 18.4554H13.1819V15.8191H15.8182V18.4554ZM27.6818 12.7872C27.6818 13.1167 27.4841 13.3804 27.1545 13.4463L17.1363 15.6872V15.1599C17.1363 14.7645 16.8727 14.5009 16.4773 14.5009H12.5227C12.1273 14.5009 11.8637 14.7645 11.8637 15.1599V15.6872L1.84546 13.4463C1.51593 13.3804 1.3182 13.1168 1.3182 12.7873V8.56906C1.3182 8.1736 1.58186 7.90999 1.97727 7.90999H27.0227C27.4182 7.90999 27.6818 8.17366 27.6818 8.56906V12.7872Z" fill="#5A5A5A"/>
<path d="M17.7955 1.97656H11.2046C10.0841 1.97656 9.22729 2.83337 9.22729 3.95383V4.6129C9.22729 5.00837 9.49096 5.27197 9.88637 5.27197C10.2818 5.27197 10.5454 5.00831 10.5454 4.6129V3.95383C10.5454 3.55837 10.8091 3.29476 11.2045 3.29476H17.7954C18.1909 3.29476 18.4545 3.55842 18.4545 3.95383V4.6129C18.4545 5.00837 18.7182 5.27197 19.1136 5.27197C19.509 5.27197 19.7726 5.00831 19.7726 4.6129V3.95383C19.7728 2.83337 18.916 1.97656 17.7955 1.97656Z" fill="#F83B0A"/>
</svg>
