<svg width="21" height="13" viewBox="0 0 21 13" fill="none" xmlns="http://www.w3.org/2000/svg">
<g clip-path="url(#clip0_1_1480)">
<path d="M19.3273 10.5312C18.8665 11.7763 18.1266 12.3898 17.0745 12.4144C15.9518 12.4407 15.2439 11.8904 14.669 10.5378H8.46015C8.11028 11.6982 7.36128 12.4078 6.12362 12.4021C4.89746 12.3971 4.15174 11.6925 3.80434 10.5312C3.42163 10.5312 3.03891 10.532 2.65702 10.5312C2.21928 10.5296 1.97207 10.2832 1.97043 9.84544C1.96879 9.26562 1.97043 8.68498 1.97043 8.08956C1.91294 8.08381 1.8612 8.07395 1.80946 8.07395C1.44728 8.07231 1.0851 8.07395 0.722916 8.07313C0.286819 8.07313 0.0059426 7.83332 0.00347877 7.4621C0.00101495 7.09007 0.282712 6.84286 0.714703 6.84286C2.49112 6.84286 4.26836 6.84286 6.04478 6.84122C6.13922 6.84122 6.23696 6.83547 6.3273 6.81001C6.61474 6.72788 6.79214 6.46343 6.7675 6.17517C6.74204 5.88279 6.50387 5.64544 6.2041 5.61752C6.13594 5.61095 6.06777 5.61506 5.99961 5.61506C4.22319 5.61506 2.44595 5.61506 0.669533 5.61506C0.41658 5.61506 0.21701 5.52225 0.0880701 5.30133C-0.0326573 5.09437 -0.0277297 4.88166 0.0971041 4.67962C0.230972 4.46281 0.436291 4.3815 0.688422 4.3815C1.87024 4.38479 3.05287 4.38397 4.23469 4.3815C4.3357 4.3815 4.44165 4.37247 4.5361 4.34126C4.8219 4.24681 4.9804 3.96922 4.93606 3.66124C4.89499 3.37215 4.70774 3.2079 4.37923 3.19969C3.99652 3.18983 3.6138 3.1964 3.23109 3.19558C2.58228 3.19558 1.93265 3.19722 1.28385 3.19558C0.891277 3.19394 0.613686 2.93031 0.619435 2.57141C0.625184 2.22155 0.89949 1.97024 1.28303 1.96613C1.50148 1.96449 1.71994 1.96613 1.95483 1.96613C1.96058 1.90946 1.97043 1.85772 1.97043 1.8068C1.97207 1.46515 1.97043 1.12433 1.97043 0.782675C1.97125 0.215174 2.18396 0 2.74489 0C5.08881 0 7.43273 0 9.77665 0C11.0135 0 12.2503 0 13.4872 0H13.7401V0.225851C13.7401 1.34607 13.7401 2.46547 13.7401 3.58569C13.7401 4.06449 13.9783 4.30184 14.4579 4.30184C15.9411 4.30184 17.4235 4.3043 18.9068 4.30102C19.3207 4.3002 19.7042 4.40614 20.0631 4.6016C20.6676 4.93011 20.9846 5.45162 20.992 6.13328C21.0068 7.38983 20.9994 8.64638 20.9961 9.90293C20.9953 10.2733 20.7316 10.5263 20.3571 10.5312C20.0155 10.5353 19.6747 10.532 19.3281 10.532L19.3273 10.5312ZM5.00751 10.059C5.00751 10.6815 5.51588 11.1849 6.14497 11.1849C6.75518 11.1849 7.26026 10.6749 7.26109 10.0598C7.26109 9.44466 6.756 8.93465 6.14579 8.93383C5.51752 8.93383 5.00833 9.43727 5.00833 10.059H5.00751ZM15.8722 10.0647C15.8746 10.6864 16.3863 11.1874 17.0154 11.1849C17.6248 11.1825 18.1274 10.67 18.1249 10.054C18.1224 9.43891 17.6149 8.93219 17.0039 8.93383C16.3764 8.93547 15.8697 9.4422 15.8722 10.0647Z" fill="#1FB567"/>
<path d="M14.9833 0.140625C16.6702 0.46585 17.5679 1.67395 18.3391 3.06026H14.9833V0.140625Z" fill="#1FB567"/>
</g>
<defs>
<clipPath id="clip0_1_1480">
<rect width="21" height="12.4152" fill="white"/>
</clipPath>
</defs>
</svg>
