<svg width="18" height="18" viewBox="0 0 18 18" fill="none" xmlns="http://www.w3.org/2000/svg">
<g clip-path="url(#clip0_1_1485)">
<path d="M15.2271 8.71572C14.5666 8.59291 13.9169 8.47301 13.2448 8.34803C13.2448 8.29353 13.2477 8.20996 13.2448 8.1264C13.2331 7.80958 13.0943 7.56687 12.8037 7.43244C12.5217 7.30237 12.2434 7.33144 12.0036 7.52981C11.0873 8.29062 10.1696 9.04925 9.26559 9.82459C8.79981 10.2243 8.85721 10.9189 9.36878 11.2983C10.2429 11.9457 11.1193 12.5902 12.0022 13.2261C12.1235 13.3133 12.2841 13.3765 12.4324 13.3896C12.8756 13.4295 13.2251 13.0996 13.244 12.6527C13.2484 12.5517 13.244 12.45 13.244 12.3396C13.9329 12.4282 14.544 12.6397 15.0716 13.1214C14.9822 13.1876 14.9081 13.2551 14.8231 13.3038C12.5595 14.6133 10.2938 15.9198 8.03028 17.2292C7.74616 17.3934 7.47729 17.3869 7.19317 17.222C4.95144 15.9234 2.70752 14.6271 0.460703 13.3372C0.144607 13.157 -0.000723758 12.9143 2.89813e-06 12.5459C0.0065428 9.96411 0.0065428 7.38303 2.89813e-06 4.80122C-0.000723758 4.44225 0.135161 4.19955 0.44835 4.02006C2.70026 2.72734 4.94853 1.42736 7.19608 0.125915C7.48093 -0.0390362 7.74979 -0.0433961 8.03319 0.121555C8.78455 0.559729 9.53809 0.992089 10.3171 1.44189C10.2422 1.48767 10.1855 1.52545 10.1267 1.55961C7.71055 2.95479 5.29442 4.35069 2.87538 5.74079C2.74822 5.81418 2.70462 5.89411 2.70534 6.03872C2.71188 7.01825 2.71334 7.99778 2.70534 8.97659C2.70316 9.21057 2.78818 9.35735 2.9931 9.46999C3.52138 9.7621 4.04021 10.0717 4.56413 10.3725C4.8032 10.5098 4.91074 10.4473 4.91074 10.1698C4.91147 9.20839 4.91365 8.24702 4.90856 7.28566C4.90856 7.16213 4.9449 7.09382 5.05535 7.0306C7.49982 5.6238 9.94211 4.21336 12.3829 2.79928C12.4898 2.73752 12.5675 2.73388 12.6751 2.79783C13.3777 3.2113 14.0819 3.62258 14.7925 4.02224C15.1006 4.19519 15.238 4.4408 15.2365 4.78959C15.2314 6.04671 15.2351 7.30455 15.2343 8.56239C15.2343 8.62052 15.2293 8.67866 15.2271 8.71572Z" fill="#FF7700"/>
<path d="M14.406 16.9906C14.4649 16.9542 14.5223 16.9157 14.5819 16.8816C15.0549 16.6113 15.4669 16.2705 15.7794 15.8199C16.4421 14.8651 16.3861 13.7105 15.6057 12.8501C14.8267 11.9912 13.7956 11.755 12.6664 11.723C12.6664 12.0123 12.6744 12.2833 12.6613 12.5529C12.6569 12.6379 12.6163 12.7534 12.5538 12.7927C12.5036 12.8239 12.3779 12.784 12.314 12.7375C11.4478 12.1096 10.5853 11.4767 9.72416 10.8416C9.47056 10.6549 9.46257 10.41 9.706 10.2051C10.5758 9.47332 11.4478 8.74448 12.3241 8.02073C12.3823 7.97277 12.4985 7.94516 12.5639 7.97059C12.617 7.99167 12.6591 8.1043 12.662 8.17842C12.6737 8.43057 12.6664 8.68344 12.6664 8.93196C13.0806 8.96756 13.4781 8.985 13.8712 9.04023C14.9583 9.1921 15.9567 9.55979 16.78 10.3133C18.4273 11.8219 18.4026 14.3121 16.7299 15.8534C16.1028 16.4318 15.3623 16.7958 14.5441 17.0153C14.5048 17.0255 14.4634 17.0269 14.4234 17.0327L14.4053 16.9898L14.406 16.9906Z" fill="#FF7700"/>
</g>
<defs>
<clipPath id="clip0_1_1485">
<rect width="18" height="17.3504" fill="white"/>
</clipPath>
</defs>
</svg>
