<svg width="29" height="29" viewBox="0 0 29 29" fill="none" xmlns="http://www.w3.org/2000/svg">
<path d="M22.9922 3.79954H20.3686V2.62583C20.3686 2.2461 19.9544 2.07351 19.5747 2.07351H17.538C17.0547 0.692659 15.8464 0.00223519 14.4656 0.00223519C13.0999 -0.0491056 11.8578 0.788271 11.3932 2.07351H9.39096C9.01123 2.07351 8.63149 2.2461 8.63149 2.62583V3.79954H6.00783C4.45307 3.81612 3.18111 5.04262 3.10803 6.59572V26.3763C3.10803 27.8953 4.48888 28.9999 6.00783 28.9999H22.9922C24.5112 28.9999 25.892 27.8953 25.892 26.3763V6.59579C25.819 5.04262 24.547 3.81612 22.9922 3.79954ZM10.0123 3.45436H11.911C12.2424 3.41392 12.5086 3.16177 12.5669 2.83298C12.7713 1.94268 13.5524 1.30359 14.4656 1.27954C15.3703 1.30696 16.1396 1.94803 16.3297 2.83298C16.3916 3.17314 16.6754 3.42852 17.0201 3.45436H18.9879V6.21605H10.0123V3.45436ZM24.5112 26.3764C24.5112 27.1359 23.7517 27.6191 22.9922 27.6191H6.00783C5.24835 27.6191 4.48888 27.1359 4.48888 26.3764V6.59579C4.55932 5.80526 5.21426 5.19492 6.00783 5.18045H8.63143V6.94103C8.6679 7.32784 9.0029 7.61719 9.3909 7.59697H19.5746C19.9697 7.61857 20.3153 7.33319 20.3686 6.94103V5.18038H22.9922C23.7857 5.19492 24.4407 5.80519 24.5111 6.59572V26.3764H24.5112Z" fill="#5A5A5A"/>
<path d="M11.8419 15.434C11.5829 15.161 11.153 15.1456 10.8753 15.3995L8.66589 17.5053L7.73383 16.5386C7.47488 16.2657 7.04499 16.2504 6.76721 16.5042C6.4998 16.7843 6.4998 17.2251 6.76721 17.5053L8.18255 18.9552C8.30505 19.0923 8.482 19.1682 8.66582 19.1623C8.84793 19.1597 9.02164 19.0853 9.1491 18.9552L11.8417 16.4006C12.1087 16.1557 12.1265 15.7408 11.8816 15.4739C11.869 15.46 11.8558 15.4467 11.8419 15.434Z" fill="#F83B0A"/>
<path d="M21.7495 16.918H13.8097C13.4284 16.918 13.1193 17.2271 13.1193 17.6084C13.1193 17.9897 13.4284 18.2988 13.8097 18.2988H21.7495C22.1309 18.2988 22.44 17.9897 22.44 17.6084C22.44 17.2271 22.1309 16.918 21.7495 16.918Z" fill="#5A5A5A"/>
<path d="M11.8419 9.91056C11.5829 9.6376 11.153 9.6222 10.8753 9.87607L8.66589 11.9818L7.73383 11.0152C7.47488 10.7423 7.04499 10.7269 6.76721 10.9807C6.4998 11.2609 6.4998 11.7017 6.76721 11.9818L8.18255 13.4317C8.30505 13.5689 8.482 13.6448 8.66582 13.6389C8.84793 13.6363 9.02164 13.5618 9.1491 13.4317L11.8417 10.8772C12.1087 10.6323 12.1265 10.2173 11.8816 9.95047C11.869 9.93653 11.8558 9.92325 11.8419 9.91056Z" fill="#F83B0A"/>
<path d="M21.7495 11.3945H13.8097C13.4284 11.3945 13.1193 11.7036 13.1193 12.085C13.1193 12.4663 13.4284 12.7754 13.8097 12.7754H21.7495C22.1309 12.7754 22.44 12.4663 22.44 12.085C22.44 11.7036 22.1309 11.3945 21.7495 11.3945Z" fill="#5A5A5A"/>
<path d="M11.8419 20.9574C11.5829 20.6844 11.153 20.6691 10.8753 20.9229L8.66589 23.0287L7.73383 22.0621C7.47488 21.7891 7.04499 21.7738 6.76721 22.0276C6.4998 22.3077 6.4998 22.7485 6.76721 23.0287L8.18255 24.4786C8.30505 24.6158 8.482 24.6916 8.66582 24.6857C8.84793 24.6831 9.02164 24.6087 9.1491 24.4786L11.8417 21.924C12.1087 21.6792 12.1265 21.2642 11.8816 20.9973C11.869 20.9834 11.8558 20.9702 11.8419 20.9574Z" fill="#F83B0A"/>
<path d="M21.7495 22.4414H13.8097C13.4284 22.4414 13.1193 22.7505 13.1193 23.1318C13.1193 23.5132 13.4284 23.8223 13.8097 23.8223H21.7495C22.1309 23.8223 22.44 23.5132 22.44 23.1318C22.44 22.7505 22.1309 22.4414 21.7495 22.4414Z" fill="#5A5A5A"/>
</svg>
