<svg width="26" height="26" viewBox="0 0 26 26" fill="none" xmlns="http://www.w3.org/2000/svg">
<circle cx="13" cy="13" r="13" fill="#212529"/>
<path d="M7.05859 12.7734C7.01953 12.8438 7 12.918 7 12.9961C7 13.0742 7.01953 13.1484 7.05859 13.2188C7.05859 13.2188 7.10547 13.3086 7.19922 13.4883C7.29297 13.6602 7.42969 13.8789 7.60938 14.1445C7.72656 14.3086 7.85547 14.4883 7.99609 14.6836C8.14453 14.8711 8.30859 15.0625 8.48828 15.2578C8.71484 15.5 8.96484 15.7422 9.23828 15.9844C9.51953 16.2266 9.82422 16.4492 10.1523 16.6523C10.5508 16.9023 10.9883 17.1055 11.4648 17.2617C11.9414 17.418 12.4531 17.4961 13 17.4961C13.5469 17.4961 14.0586 17.418 14.5352 17.2617C15.0117 17.1055 15.4492 16.9023 15.8477 16.6523C16.1758 16.4492 16.4766 16.2266 16.75 15.9844C17.0312 15.7422 17.2852 15.5 17.5117 15.2578C17.6914 15.0625 17.8516 14.8711 17.9922 14.6836C18.1406 14.4883 18.2734 14.3086 18.3906 14.1445C18.5703 13.8789 18.707 13.6602 18.8008 13.4883C18.8945 13.3086 18.9414 13.2188 18.9414 13.2188C18.9805 13.1562 19 13.0859 19 13.0078C19 12.9297 18.9805 12.8516 18.9414 12.7734C18.9414 12.7734 18.8945 12.6875 18.8008 12.5156C18.707 12.3359 18.5703 12.1172 18.3906 11.8594C18.2734 11.6953 18.1406 11.5195 17.9922 11.332C17.8516 11.1367 17.6914 10.9414 17.5117 10.7461C17.2852 10.5039 17.0312 10.2617 16.75 10.0195C16.4766 9.77734 16.1758 9.55469 15.8477 9.35156C15.4492 9.10156 15.0117 8.89844 14.5352 8.74219C14.0586 8.57812 13.5469 8.49609 13 8.49609C12.4531 8.49609 11.9414 8.57812 11.4648 8.74219C10.9883 8.89844 10.5508 9.10156 10.1523 9.35156C9.82422 9.55469 9.51953 9.77734 9.23828 10.0195C8.96484 10.2617 8.71484 10.5039 8.48828 10.7461C8.30859 10.9414 8.14453 11.1367 7.99609 11.332C7.85547 11.5195 7.72656 11.6953 7.60938 11.8594C7.42969 12.1172 7.29297 12.3359 7.19922 12.5156C7.10547 12.6875 7.05859 12.7734 7.05859 12.7734ZM8.06641 12.9961C8.11328 12.9258 8.16406 12.8438 8.21875 12.75C8.28125 12.6484 8.35547 12.5391 8.44141 12.4219C8.54297 12.2734 8.66016 12.1133 8.79297 11.9414C8.92578 11.7695 9.07031 11.5977 9.22656 11.4258C9.42969 11.1992 9.65234 10.9805 9.89453 10.7695C10.1367 10.5586 10.3984 10.3672 10.6797 10.1953C11.0156 9.98438 11.375 9.81641 11.7578 9.69141C12.1484 9.56641 12.5625 9.50391 13 9.50391C13.4375 9.50391 13.8477 9.56641 14.2305 9.69141C14.6211 9.81641 14.9844 9.98438 15.3203 10.1953C15.6016 10.3672 15.8633 10.5586 16.1055 10.7695C16.3477 10.9805 16.5703 11.1992 16.7734 11.4258C16.9297 11.5977 17.0742 11.7695 17.207 11.9414C17.3398 12.1133 17.457 12.2734 17.5586 12.4219C17.6445 12.5391 17.7148 12.6484 17.7695 12.75C17.832 12.8438 17.8867 12.9258 17.9336 12.9961C17.8867 13.0664 17.832 13.1523 17.7695 13.2539C17.7148 13.3477 17.6445 13.457 17.5586 13.582C17.457 13.7305 17.3398 13.8906 17.207 14.0625C17.0742 14.2344 16.9297 14.4062 16.7734 14.5781C16.5703 14.7969 16.3477 15.0117 16.1055 15.2227C15.8633 15.4336 15.6016 15.6289 15.3203 15.8086C14.9844 16.0117 14.6211 16.1797 14.2305 16.3125C13.8477 16.4375 13.4375 16.5 13 16.5C12.5625 16.5 12.1484 16.4375 11.7578 16.3125C11.375 16.1797 11.0156 16.0117 10.6797 15.8086C10.3984 15.6289 10.1367 15.4336 9.89453 15.2227C9.65234 15.0117 9.42969 14.7969 9.22656 14.5781C9.07031 14.4062 8.92578 14.2344 8.79297 14.0625C8.66016 13.8906 8.54297 13.7305 8.44141 13.582C8.35547 13.457 8.28125 13.3477 8.21875 13.2539C8.16406 13.1523 8.11328 13.0664 8.06641 12.9961ZM15.0039 12.9961C15.0039 12.7227 14.9492 12.4648 14.8398 12.2227C14.7383 11.9805 14.5977 11.7695 14.418 11.5898C14.2383 11.4102 14.0234 11.2695 13.7734 11.168C13.5312 11.0586 13.2734 11.0039 13 11.0039C12.7266 11.0039 12.4648 11.0586 12.2148 11.168C11.9727 11.2695 11.7617 11.4102 11.582 11.5898C11.4023 11.7695 11.2578 11.9805 11.1484 12.2227C11.0469 12.4648 10.9961 12.7227 10.9961 12.9961C10.9961 13.2773 11.0469 13.5391 11.1484 13.7812C11.2578 14.0234 11.4023 14.2344 11.582 14.4141C11.7617 14.5938 11.9727 14.7383 12.2148 14.8477C12.4648 14.9492 12.7266 15 13 15C13.2734 15 13.5312 14.9492 13.7734 14.8477C14.0234 14.7383 14.2383 14.5938 14.418 14.4141C14.5977 14.2344 14.7383 14.0234 14.8398 13.7812C14.9492 13.5391 15.0039 13.2773 15.0039 12.9961ZM13.9961 12.9961C13.9961 13.1367 13.9688 13.2695 13.9141 13.3945C13.8672 13.5117 13.7969 13.6172 13.7031 13.7109C13.6172 13.7969 13.5117 13.8672 13.3867 13.9219C13.2695 13.9766 13.1406 14.0039 13 14.0039C12.8594 14.0039 12.7266 13.9766 12.6016 13.9219C12.4844 13.8672 12.3828 13.7969 12.2969 13.7109C12.2031 13.6172 12.1289 13.5117 12.0742 13.3945C12.0273 13.2695 12.0039 13.1367 12.0039 12.9961C12.0039 12.8633 12.0273 12.7383 12.0742 12.6211C12.1289 12.4961 12.2031 12.3867 12.2969 12.293C12.3828 12.1992 12.4844 12.1289 12.6016 12.082C12.7266 12.0273 12.8594 12 13 12C13.1406 12 13.2695 12.0273 13.3867 12.082C13.5117 12.1289 13.6172 12.1992 13.7031 12.293C13.7969 12.3867 13.8672 12.4961 13.9141 12.6211C13.9688 12.7383 13.9961 12.8633 13.9961 12.9961Z" fill="white"/>
</svg>
