<svg width="29" height="29" viewBox="0 0 29 29" fill="none" xmlns="http://www.w3.org/2000/svg">
<path d="M20.5458 1.34766C19.1937 1.34766 17.9013 1.65763 16.7048 2.26902C15.8903 2.68512 15.142 3.23798 14.5 3.89392C13.8579 3.23798 13.1097 2.68512 12.2952 2.26902C11.0986 1.65763 9.8063 1.34766 8.45413 1.34766C3.79254 1.34766 0 5.1402 0 9.80184C0 13.1036 1.74377 16.6103 5.18281 20.2247C8.05423 23.2426 11.5697 25.7582 14.0132 27.3372L14.5 27.6518L14.9868 27.3372C17.4303 25.7583 20.9458 23.2426 23.8173 20.2247C27.2563 16.6103 29 13.1036 29 9.80184C29 5.1402 25.2075 1.34766 20.5458 1.34766ZM22.5177 18.9882C19.9515 21.6853 16.8256 23.9781 14.5 25.5127C12.1744 23.9781 9.04854 21.6853 6.48237 18.9882C3.37124 15.7186 1.79381 12.6278 1.79381 9.80184C1.79381 6.12931 4.78165 3.14147 8.45419 3.14147C10.5686 3.14147 12.5108 4.1127 13.7829 5.80606L14.5 6.76067L15.2171 5.80606C16.4892 4.1127 18.4314 3.14147 20.5458 3.14147C24.2183 3.14147 27.2062 6.12931 27.2062 9.80184C27.2062 12.6278 25.6287 15.7186 22.5177 18.9882Z" fill="#5A5A5A"/>
<circle cx="22" cy="10" r="2" fill="#F83B0A"/>
</svg>
