<svg width="32" height="34" viewBox="0 0 32 34" fill="none" xmlns="http://www.w3.org/2000/svg">
<g clip-path="url(#clip0_1_1363)">
<path d="M29.3702 17.6689L23.9676 23.5444C23.703 23.8232 23.5795 24.2043 23.6183 24.5924L24.5322 32.5217C24.6451 33.5521 23.5971 34.3143 22.6549 33.8767L15.4032 30.5596C15.0503 30.4044 14.6481 30.3938 14.2916 30.5596L10.4205 32.3311L7.03643 33.8802C6.09424 34.3072 5.04619 33.545 5.15911 32.5181L6.07659 24.5854C6.1013 24.3984 6.08718 24.2043 6.02013 24.0243C5.96367 23.8443 5.8684 23.675 5.7343 23.5338L0.349351 17.6548C-0.349352 16.8891 0.0564602 15.6505 1.0657 15.4458L8.88199 13.8719C9.26663 13.8014 9.58775 13.5579 9.77478 13.2226L11.278 10.5619L11.2886 10.5513L13.7023 6.27443C14.2175 5.37812 15.5126 5.37812 16.0172 6.28502L18.9532 11.4794L19.9377 13.2332C20.1283 13.5685 20.4459 13.7978 20.834 13.8825L28.6468 15.467C29.6596 15.6752 30.0689 16.9067 29.3702 17.6725V17.6689Z" fill="url(#paint0_linear_1_1363)"/>
<path d="M30.8594 5.67335L28.6779 7.94911C28.571 8.05709 28.5211 8.20471 28.5368 8.35506L28.9059 11.4263C28.9514 11.8254 28.5283 12.1207 28.1478 11.9512L25.2197 10.6664C25.0772 10.6062 24.9147 10.6021 24.7708 10.6664L23.2077 11.3525L21.8412 11.9525C21.4608 12.1179 21.0376 11.8227 21.0832 11.425L21.4537 8.35233C21.4636 8.27989 21.4579 8.20471 21.4309 8.135C21.4081 8.0653 21.3696 7.99969 21.3155 7.94501L19.1411 5.66788C18.8589 5.37128 19.0228 4.89153 19.4303 4.81225L22.5865 4.20265C22.7418 4.17531 22.8714 4.081 22.947 3.95115L23.554 2.92056L23.5582 2.91646L24.5329 1.25987C24.7409 0.912696 25.2638 0.912696 25.4676 1.26397L26.6531 3.27594L27.0506 3.95525C27.1276 4.0851 27.2558 4.17394 27.4126 4.20675L30.5673 4.82045C30.9762 4.90109 31.1415 5.37812 30.8594 5.67472V5.67335Z" fill="url(#paint1_linear_1_1363)"/>
</g>
<defs>
<linearGradient id="paint0_linear_1_1363" x1="14.8592" y1="5.60352" x2="14.8592" y2="34.0028" gradientUnits="userSpaceOnUse">
<stop stop-color="#F90B0B"/>
<stop offset="1" stop-color="#FF6901"/>
</linearGradient>
<linearGradient id="paint1_linear_1_1363" x1="25" y1="1" x2="25" y2="12" gradientUnits="userSpaceOnUse">
<stop stop-color="#F90B0B"/>
<stop offset="1" stop-color="#FF6901"/>
</linearGradient>
<clipPath id="clip0_1_1363">
<rect width="31.544" height="34" fill="white"/>
</clipPath>
</defs>
</svg>
