<svg width="30" height="25" viewBox="0 0 30 25" fill="none" xmlns="http://www.w3.org/2000/svg">
<path d="M21.0267 22.4553C20.7059 22.4553 20.3983 22.3276 20.1715 22.1004C19.9446 21.8731 19.8172 21.5649 19.8172 21.2435H17.3983C17.3983 22.2077 17.7806 23.1324 18.461 23.8141C19.1415 24.4959 20.0644 24.8789 21.0267 24.8789C21.989 24.8789 22.9119 24.4959 23.5923 23.8141C24.2728 23.1324 24.655 22.2077 24.655 21.2435H22.2361C22.2361 21.5649 22.1087 21.8731 21.8819 22.1004C21.6551 22.3276 21.3474 22.4553 21.0267 22.4553Z" fill="#F83B0A"/>
<path d="M12.5159 22.4553C12.1951 22.4553 11.8875 22.3276 11.6607 22.1004C11.4339 21.8731 11.3065 21.5649 11.3065 21.2435H8.87622C8.87622 21.7216 8.97021 22.195 9.15282 22.6367C9.33542 23.0785 9.60308 23.4798 9.94049 23.8179C10.2779 24.1559 10.6785 24.4241 11.1193 24.6071C11.5602 24.79 12.0327 24.8842 12.5099 24.8842C12.987 24.8842 13.4595 24.79 13.9004 24.6071C14.3413 24.4241 14.7418 24.1559 15.0792 23.8179C15.4167 23.4798 15.6843 23.0785 15.8669 22.6367C16.0495 22.195 16.1435 21.7216 16.1435 21.2435H13.7246C13.7246 21.5648 13.5973 21.8729 13.3706 22.1001C13.144 22.3274 12.8365 22.4551 12.5159 22.4553Z" fill="#F83B0A"/>
<path d="M28.294 2.40648C28.2281 2.39523 28.1613 2.38966 28.0944 2.38981H8.74323C8.42246 2.38981 8.11483 2.51748 7.88802 2.74474C7.6612 2.97199 7.53378 3.28021 7.53378 3.6016C7.53378 3.92298 7.6612 4.2312 7.88802 4.45846C8.11483 4.68571 8.42246 4.81338 8.74323 4.81338H26.6665L26.3468 6.73557L24.6513 16.9312H8.874L4.76187 6.73557L2.30895 0.70695C2.17923 0.423343 1.94535 0.200787 1.65597 0.0856101C1.3666 -0.0295669 1.04405 -0.0284904 0.75545 0.0886157C0.466852 0.205722 0.234449 0.429834 0.106621 0.7143C-0.021207 0.998766 -0.0346119 1.32167 0.069197 1.61579L3.98555 11.2442L6.65844 18.3422C6.85573 18.9397 7.26316 19.3548 7.85126 19.3548H25.6755C25.9619 19.3549 26.2391 19.2532 26.4577 19.0678C26.6762 18.8824 26.822 18.6252 26.8691 18.3422L28.7997 6.73557L29.288 3.80078C29.3407 3.48382 29.2656 3.15888 29.0792 2.89741C28.8928 2.63594 28.6103 2.45935 28.294 2.40648Z" fill="#212529"/>
</svg>
