<svg width="32" height="32" viewBox="0 0 32 32" fill="none" xmlns="http://www.w3.org/2000/svg">
<g clip-path="url(#clip0_1_10534)">
<path d="M8.57005 25.0528H5.93315C5.56926 25.0528 5.27393 24.7575 5.27393 24.3936C5.27393 24.0297 5.56926 23.7344 5.93315 23.7344H8.57005C8.93394 23.7344 9.22927 24.0297 9.22927 24.3936C9.22927 24.7575 8.93394 25.0528 8.57005 25.0528Z" fill="white"/>
<path d="M29.9947 25.0496H28.3467C27.9828 25.0496 27.6874 24.7543 27.6874 24.3904C27.6874 24.0265 27.9828 23.7312 28.3467 23.7312H29.4476L30.3362 18.9953C30.3243 16.572 28.2544 14.502 25.7098 14.502H21.3813L19.2836 23.7312H23.0729C23.4367 23.7312 23.7321 24.0265 23.7321 24.3904C23.7321 24.7543 23.4367 25.0496 23.0729 25.0496H18.4583C18.2579 25.0496 18.068 24.9587 17.9428 24.8018C17.8175 24.6462 17.7701 24.4405 17.8149 24.2454L20.2118 13.6978C20.2804 13.3959 20.5467 13.1836 20.8552 13.1836H25.7098C28.9808 13.1836 31.6428 15.8455 31.6428 19.1166L30.6421 24.5117C30.5841 24.8242 30.3125 25.0496 29.9947 25.0496Z" fill="white"/>
<path d="M25.7097 27.6899C23.8929 27.6899 22.4136 26.2119 22.4136 24.3938C22.4136 22.5756 23.8929 21.0977 25.7097 21.0977C27.5265 21.0977 29.0058 22.5756 29.0058 24.3938C29.0058 26.2119 27.5265 27.6899 25.7097 27.6899ZM25.7097 22.4161C24.6193 22.4161 23.732 23.3034 23.732 24.3938C23.732 25.4841 24.6193 26.3715 25.7097 26.3715C26.8001 26.3715 27.6874 25.4841 27.6874 24.3938C27.6874 23.3034 26.8001 22.4161 25.7097 22.4161Z" fill="white"/>
<path d="M11.2068 27.6899C9.38994 27.6899 7.91064 26.2119 7.91064 24.3938C7.91064 22.5756 9.38994 21.0977 11.2068 21.0977C13.0236 21.0977 14.5029 22.5756 14.5029 24.3938C14.5029 26.2119 13.0236 27.6899 11.2068 27.6899ZM11.2068 22.4161C10.1164 22.4161 9.22909 23.3034 9.22909 24.3938C9.22909 25.4841 10.1164 26.3715 11.2068 26.3715C12.2971 26.3715 13.1844 25.4841 13.1844 24.3938C13.1844 23.3034 12.2971 22.4161 11.2068 22.4161Z" fill="white"/>
<path d="M8.56974 13.1856H3.29594C2.93205 13.1856 2.63672 12.8903 2.63672 12.5264C2.63672 12.1625 2.93205 11.8672 3.29594 11.8672H8.56974C8.93363 11.8672 9.22896 12.1625 9.22896 12.5264C9.22896 12.8903 8.93363 13.1856 8.56974 13.1856Z" fill="white"/>
<path d="M8.56983 17.1388H1.97758C1.61369 17.1388 1.31836 16.8434 1.31836 16.4795C1.31836 16.1156 1.61369 15.8203 1.97758 15.8203H8.56983C8.93372 15.8203 9.22905 16.1156 9.22905 16.4795C9.22905 16.8434 8.93372 17.1388 8.56983 17.1388Z" fill="white"/>
<path d="M8.56992 21.0958H0.659224C0.295333 21.0958 0 20.8005 0 20.4366C0 20.0727 0.295333 19.7773 0.659224 19.7773H8.56992C8.93381 19.7773 9.22914 20.0727 9.22914 20.4366C9.22914 20.8005 8.93381 21.0958 8.56992 21.0958Z" fill="white"/>
<path d="M18.4584 25.0519H13.8438C13.48 25.0519 13.1846 24.7565 13.1846 24.3926C13.1846 24.0287 13.48 23.7334 13.8438 23.7334H17.9324L20.9279 10.5489H5.93315C5.56926 10.5489 5.27393 10.2536 5.27393 9.88969C5.27393 9.5258 5.56926 9.23047 5.93315 9.23047H21.7545C21.9549 9.23047 22.1448 9.32144 22.2701 9.47834C22.3953 9.63391 22.4428 9.83959 22.3979 10.0347L19.1018 24.5377C19.0333 24.8396 18.7656 25.0519 18.4584 25.0519Z" fill="white"/>
</g>
<defs>
<clipPath id="clip0_1_10534">
<rect width="31.6428" height="31.6428" fill="white"/>
</clipPath>
</defs>
</svg>
