<svg width="32" height="32" viewBox="0 0 32 32" fill="none" xmlns="http://www.w3.org/2000/svg">
<g clip-path="url(#clip0_1_10543)">
<path d="M29.4277 14.3019L28.6082 11.0242C28.8323 10.9767 29.0004 10.7779 29.0004 10.5398V10.0113C29.0004 8.86388 28.0668 7.93042 26.9195 7.93042H23.1871V6.84035C23.1871 6.27572 22.7278 5.81641 22.1632 5.81641H3.13783C2.5732 5.81641 2.11389 6.27572 2.11389 6.84035V15.8245C2.11389 16.0981 2.33569 16.32 2.60935 16.32C2.88295 16.32 3.10482 16.0982 3.10482 15.8245V6.84035C3.10482 6.82211 3.11959 6.80734 3.13783 6.80734H22.1631C22.1813 6.80734 22.1961 6.82211 22.1961 6.84035V15.8247C22.1961 16.0983 22.4179 16.3201 22.6916 16.3201C22.9652 16.3201 23.187 16.0983 23.187 15.8247V15.263H29.0316C29.0321 15.263 29.0325 15.2631 29.0329 15.2631C29.0334 15.2631 29.0339 15.2631 29.0343 15.2631C29.7535 15.2636 30.3641 15.7356 30.5739 16.3861H29.0333C28.7597 16.3861 28.5378 16.6079 28.5378 16.8815V17.9385C28.5378 18.7945 29.2342 19.4909 30.0902 19.4909H30.6518V21.6709H29.3563C28.9307 20.442 27.7626 19.5569 26.3909 19.5569C25.0192 19.5569 23.851 20.442 23.4255 21.6709H23.1869V17.9384C23.1869 17.6648 22.9651 17.443 22.6915 17.443C22.4179 17.443 22.196 17.6648 22.196 17.9384V21.6707H11.9165C11.491 20.4419 10.3228 19.5568 8.95113 19.5568C7.57943 19.5568 6.41125 20.4419 5.98574 21.6707H3.13783C3.11959 21.6707 3.10482 21.656 3.10482 21.6377V20.5477H5.25177C5.52537 20.5477 5.74724 20.3259 5.74724 20.0523C5.74724 19.7786 5.52543 19.5568 5.25177 19.5568H0.495469C0.22187 19.5568 0 19.7786 0 20.0523C0 20.3259 0.221808 20.5477 0.495469 20.5477H2.11395V21.6377C2.11395 22.2024 2.57326 22.6617 3.13789 22.6617H5.81417C5.81405 22.6727 5.81331 22.6836 5.81331 22.6947C5.81331 24.4249 7.22098 25.8325 8.95113 25.8325C10.6813 25.8325 12.089 24.4249 12.089 22.6947C12.089 22.6835 12.0882 22.6727 12.0881 22.6617H23.2539C23.2538 22.6727 23.253 22.6836 23.253 22.6947C23.253 24.4249 24.6607 25.8325 26.3909 25.8325C28.121 25.8325 29.5287 24.4249 29.5287 22.6947C29.5287 22.6835 29.528 22.6727 29.5278 22.6617H31.1472C31.4208 22.6617 31.6427 22.4399 31.6427 22.1662V16.8814C31.6428 15.5767 30.6801 14.4926 29.4277 14.3019ZM23.1871 8.92129H26.9195C27.5205 8.92129 28.0095 9.41027 28.0095 10.0113V10.0443H23.1871V8.92129ZM23.1871 14.2721V11.0352H27.5896L28.3988 14.2721H23.1871ZM8.95113 24.8417C7.76731 24.8417 6.80418 23.8787 6.80418 22.6948C6.80418 21.5109 7.76731 20.5478 8.95113 20.5478C10.135 20.5478 11.0981 21.5109 11.0981 22.6948C11.0981 23.8787 10.135 24.8417 8.95113 24.8417ZM26.391 24.8417C25.2072 24.8417 24.244 23.8787 24.244 22.6948C24.244 21.5109 25.2072 20.5478 26.391 20.5478C27.5748 20.5478 28.5379 21.5109 28.5379 22.6948C28.5379 23.8787 27.5748 24.8417 26.391 24.8417ZM30.6519 18.5H30.0904C29.7807 18.5 29.5288 18.2481 29.5288 17.9384V17.3769H30.6518V18.5H30.6519Z" fill="white"/>
<path d="M8.95119 21.6719C8.38656 21.6719 7.92725 22.1312 7.92725 22.6958C7.92725 23.2604 8.38656 23.7198 8.95119 23.7198C9.51581 23.7198 9.97513 23.2604 9.97513 22.6958C9.97513 22.1312 9.51581 21.6719 8.95119 21.6719Z" fill="white"/>
<path d="M26.3911 21.6719C25.8265 21.6719 25.3672 22.1312 25.3672 22.6958C25.3672 23.2604 25.8265 23.7198 26.3911 23.7198C26.9558 23.7198 27.4151 23.2604 27.4151 22.6958C27.4151 22.1312 26.9558 21.6719 26.3911 21.6719Z" fill="white"/>
<path d="M20.5778 19.5547H13.1791C12.9055 19.5547 12.6836 19.7765 12.6836 20.0502C12.6836 20.3238 12.9054 20.5456 13.1791 20.5456H20.5778C20.8514 20.5456 21.0733 20.3238 21.0733 20.0502C21.0733 19.7765 20.8514 19.5547 20.5778 19.5547Z" fill="white"/>
<path d="M7.89438 17.4414H1.5526C1.279 17.4414 1.05713 17.6632 1.05713 17.9369C1.05713 18.2105 1.27894 18.4323 1.5526 18.4323H7.89438C8.16798 18.4323 8.38985 18.2105 8.38985 17.9369C8.38985 17.6632 8.16798 17.4414 7.89438 17.4414Z" fill="white"/>
<path d="M17.2284 10.7115C17.0349 10.518 16.7212 10.518 16.5277 10.7115L12.1217 15.1175L9.82967 12.8254C9.63616 12.6319 9.32246 12.6319 9.12901 12.8254C8.93551 13.0189 8.93551 13.3326 9.12901 13.5261L11.7714 16.1685C11.8682 16.2653 11.995 16.3136 12.1217 16.3136C12.2485 16.3136 12.3754 16.2653 12.472 16.1685L17.2283 11.4122C17.4218 11.2186 17.4218 10.905 17.2284 10.7115Z" fill="white"/>
</g>
<defs>
<clipPath id="clip0_1_10543">
<rect width="31.6428" height="31.6428" fill="white"/>
</clipPath>
</defs>
</svg>
