<svg width="32" height="32" viewBox="0 0 32 32" fill="none" xmlns="http://www.w3.org/2000/svg">
<g clip-path="url(#clip0_1_10504)">
<path d="M30.4718 7.57419L24.8214 5.31399C24.6864 5.25992 24.5359 5.25992 24.401 5.31399L18.7505 7.57419C18.6457 7.61617 18.5559 7.68854 18.4927 7.782C18.4294 7.87546 18.3956 7.98571 18.3956 8.09855V13.9389C18.3985 15.012 18.6778 16.0663 19.2065 17.0002C19.7352 17.934 20.4955 18.716 21.4141 19.2707L24.3207 21.0145C24.4085 21.067 24.5089 21.0948 24.6112 21.0948C24.7135 21.0948 24.8138 21.067 24.9016 21.0145L27.4364 19.4933V25.8219C27.4361 26.0676 27.3384 26.3031 27.1647 26.4768C26.9909 26.6506 26.7554 26.7483 26.5097 26.7486H4.631C4.38532 26.7483 4.14979 26.6506 3.97607 26.4768C3.80235 26.3031 3.70462 26.0676 3.70432 25.8219V13.184H16.7005C16.8503 13.184 16.994 13.1245 17.1 13.0185C17.206 12.9125 17.2655 12.7688 17.2655 12.6189C17.2655 12.4691 17.206 12.3254 17.1 12.2194C16.994 12.1134 16.8503 12.0539 16.7005 12.0539H3.70432V10.7204C3.70462 10.4747 3.80235 10.2392 3.97607 10.0655C4.14979 9.89173 4.38532 9.794 4.631 9.7937H16.7005C16.8503 9.7937 16.994 9.73417 17.1 9.6282C17.206 9.52224 17.2655 9.37851 17.2655 9.22865C17.2655 9.07879 17.206 8.93507 17.1 8.8291C16.994 8.72314 16.8503 8.6636 16.7005 8.6636H4.631C4.0856 8.6639 3.56262 8.88069 3.17697 9.26635C2.79131 9.65201 2.57452 10.175 2.57422 10.7204V25.8185C2.57452 26.3639 2.79131 26.8869 3.17697 27.2725C3.56262 27.6582 4.0856 27.875 4.631 27.8753H26.5097C27.0551 27.875 27.5781 27.6582 27.9638 27.2725C28.3494 26.8869 28.5662 26.3639 28.5665 25.8185V18.7215C29.2704 18.1379 29.8376 17.4069 30.2281 16.5802C30.6187 15.7534 30.823 14.851 30.8267 13.9366V8.09855C30.8267 7.98571 30.7929 7.87546 30.7296 7.782C30.6664 7.68854 30.5766 7.61617 30.4718 7.57419ZM29.6966 13.9389C29.6943 14.817 29.4658 15.6797 29.033 16.4437C28.6003 17.2078 27.9781 17.8475 27.2262 18.3011L24.6112 19.8708L21.9961 18.3011C21.2443 17.8475 20.622 17.2078 20.1893 16.4437C19.7565 15.6797 19.528 14.817 19.5257 13.9389V8.48053L24.6112 6.44635L29.6966 8.48053V13.9389Z" fill="white"/>
<path d="M22.7511 12.318C22.6986 12.2654 22.6363 12.2237 22.5677 12.1953C22.4992 12.1668 22.4257 12.1521 22.3514 12.1521C22.2772 12.152 22.2036 12.1666 22.135 12.195C22.0664 12.2233 22.0041 12.2649 21.9515 12.3174C21.899 12.3699 21.8573 12.4322 21.8288 12.5007C21.8004 12.5693 21.7857 12.6428 21.7856 12.717C21.7856 12.7913 21.8002 12.8648 21.8285 12.9334C21.8569 13.002 21.8985 13.0644 21.951 13.1169L23.4585 14.6234C23.5645 14.7293 23.7082 14.7888 23.858 14.7888C24.0078 14.7888 24.1515 14.7293 24.2575 14.6234L27.2715 11.6094C27.3774 11.5033 27.4369 11.3594 27.4368 11.2095C27.4367 11.0596 27.377 10.9158 27.2709 10.8098C27.1648 10.7039 27.0209 10.6444 26.871 10.6445C26.7211 10.6446 26.5773 10.7043 26.4713 10.8104L23.8574 13.4255L22.7511 12.318Z" fill="white"/>
<path d="M6.5294 23.3555C6.37954 23.3555 6.23582 23.415 6.12985 23.521C6.02389 23.6269 5.96436 23.7707 5.96436 23.9205C5.96436 24.0704 6.02389 24.2141 6.12985 24.3201C6.23582 24.426 6.37954 24.4856 6.5294 24.4856H11.0498C11.1997 24.4856 11.3434 24.426 11.4494 24.3201C11.5553 24.2141 11.6149 24.0704 11.6149 23.9205C11.6149 23.7707 11.5553 23.6269 11.4494 23.521C11.3434 23.415 11.1997 23.3555 11.0498 23.3555H6.5294Z" fill="white"/>
</g>
<defs>
<clipPath id="clip0_1_10504">
<rect width="31.6428" height="31.6428" fill="white"/>
</clipPath>
</defs>
</svg>
