<svg width="31" height="31" viewBox="0 0 31 31" fill="none" xmlns="http://www.w3.org/2000/svg">
<path d="M7.75 0C6.68437 0 5.8125 0.871875 5.8125 1.9375V29.0625C5.8125 30.1281 6.68437 31 7.75 31H27.125C28.1906 31 29.0625 30.1281 29.0625 29.0625V7.75L21.3125 0H7.75Z" fill="#E2E5E7"/>
<path d="M23.25 7.75H29.0625L21.3125 0V5.8125C21.3125 6.87813 22.1844 7.75 23.25 7.75Z" fill="#B0B7BD"/>
<path d="M29.0625 13.5625L23.25 7.75H29.0625V13.5625Z" fill="#CAD1D8"/>
<path d="M25.1875 25.1875C25.1875 25.7203 24.7516 26.1562 24.2188 26.1562H2.90625C2.37344 26.1562 1.9375 25.7203 1.9375 25.1875V15.5C1.9375 14.9672 2.37344 14.5312 2.90625 14.5312H24.2188C24.7516 14.5312 25.1875 14.9672 25.1875 15.5V25.1875Z" fill="#F15642"/>
<path d="M6.16016 18.3551C6.16016 18.0993 6.36166 17.8203 6.68619 17.8203H8.47547C9.48297 17.8203 10.3897 18.4946 10.3897 19.7869C10.3897 21.0114 9.48297 21.6934 8.47547 21.6934H7.18219V22.7164C7.18219 23.0574 6.96519 23.2502 6.68619 23.2502C6.43044 23.2502 6.16016 23.0574 6.16016 22.7164V18.3551ZM7.18219 18.7958V20.7256H8.47547C8.99472 20.7256 9.40547 20.2674 9.40547 19.7869C9.40547 19.2453 8.99472 18.7958 8.47547 18.7958H7.18219Z" fill="white"/>
<path d="M11.9068 23.2507C11.6511 23.2507 11.3721 23.1112 11.3721 22.7712V18.3711C11.3721 18.0931 11.6511 17.8906 11.9068 17.8906H13.6806C17.2204 17.8906 17.1429 23.2507 13.7504 23.2507H11.9068ZM12.3951 18.8361V22.3062H13.6806C15.7721 22.3062 15.8651 18.8361 13.6806 18.8361H12.3951Z" fill="white"/>
<path d="M18.3986 18.8991V20.1304H20.3738C20.6528 20.1304 20.9318 20.4094 20.9318 20.6797C20.9318 20.9354 20.6528 21.1447 20.3738 21.1447H18.3986V22.7712C18.3986 23.0424 18.2058 23.2507 17.9345 23.2507C17.5935 23.2507 17.3853 23.0424 17.3853 22.7712V18.3711C17.3853 18.0931 17.5945 17.8906 17.9345 17.8906H20.6538C20.9948 17.8906 21.1963 18.0931 21.1963 18.3711C21.1963 18.6191 20.9948 18.8981 20.6538 18.8981H18.3986V18.8991Z" fill="white"/>
<path d="M24.2188 26.1562H5.8125V27.125H24.2188C24.7516 27.125 25.1875 26.6891 25.1875 26.1562V25.1875C25.1875 25.7203 24.7516 26.1562 24.2188 26.1562Z" fill="#CAD1D8"/>
</svg>
