<svg width="32" height="32" viewBox="0 0 32 32" fill="none" xmlns="http://www.w3.org/2000/svg">
<g clip-path="url(#clip0_1_10509)">
<path d="M15.8216 19.774C18.0024 19.774 19.7769 17.9995 19.7769 15.8186C19.7769 13.6377 18.0024 11.8633 15.8216 11.8633C13.6407 11.8633 11.8662 13.6377 11.8662 15.8186C11.8662 17.9995 13.6407 19.774 15.8216 19.774ZM15.8216 12.8521C17.4576 12.8521 18.7881 14.1826 18.7881 15.8186C18.7881 17.4547 17.4576 18.7851 15.8216 18.7851C14.1855 18.7851 12.855 17.4547 12.855 15.8186C12.855 14.1826 14.1855 12.8521 15.8216 12.8521Z" fill="white"/>
<path d="M15.8214 17.7952C16.9121 17.7952 17.7991 16.9082 17.7991 15.8175C17.7991 14.7268 16.9121 13.8398 15.8214 13.8398C14.7307 13.8398 13.8438 14.7268 13.8438 15.8175C13.8438 16.9082 14.7307 17.7952 15.8214 17.7952ZM15.8214 14.8287C16.3668 14.8287 16.8103 15.2722 16.8103 15.8175C16.8103 16.3629 16.3668 16.8064 15.8214 16.8064C15.2761 16.8064 14.8326 16.3629 14.8326 15.8175C14.8326 15.2722 15.2761 14.8287 15.8214 14.8287Z" fill="white"/>
<path d="M12.5732 21.6591L13.4374 21.2458C13.5145 21.2799 13.5921 21.3125 13.6703 21.3427L13.9882 22.2455H17.6543L17.9732 21.3427C18.0508 21.312 18.1284 21.2799 18.2061 21.2458L19.0703 21.6591L21.663 19.0664L21.2497 18.2021C21.2838 18.125 21.3164 18.0474 21.3466 17.9693L22.2489 17.6514V13.9853L21.3461 13.6664C21.3155 13.5887 21.2833 13.5111 21.2492 13.4335L21.6625 12.5692L19.0698 9.97651L18.2056 10.3898C18.1284 10.3557 18.0508 10.3231 17.9727 10.2929L17.6548 9.39062H13.9887L13.6698 10.2934C13.5921 10.3241 13.5145 10.3562 13.4369 10.3903L12.5727 9.97701L9.97993 12.5697L10.3933 13.434C10.3591 13.5111 10.3265 13.5887 10.2964 13.6668L9.39404 13.9848V17.6509L10.2969 17.9698C10.3275 18.0474 10.3596 18.125 10.3938 18.2026L9.98042 19.0669L12.5732 21.6591ZM10.3829 16.9513V14.6844L11.0711 14.4416L11.1487 14.2152C11.2135 14.0258 11.2931 13.835 11.3851 13.6481L11.4904 13.433L11.1749 12.7734L12.7778 11.1705L13.4374 11.486L13.6525 11.3807C13.8394 11.2887 14.0302 11.2096 14.2196 11.1443L14.446 11.0667L14.6883 10.3795H16.9552L17.1979 11.0677L17.4244 11.1453C17.6137 11.2101 17.8046 11.2897 17.9915 11.3816L18.2066 11.487L18.8661 11.1715L20.469 12.7744L20.1536 13.434L20.2589 13.6491C20.3508 13.8359 20.43 14.0268 20.4952 14.2161L20.5728 14.4426L21.2601 14.6849V16.9518L20.5719 17.1945L20.4942 17.421C20.4295 17.6103 20.3499 17.8012 20.2579 17.9881L20.1526 18.2031L20.468 18.8627L18.8651 20.4656L18.2056 20.1502L17.9905 20.2555C17.8036 20.3474 17.6128 20.4265 17.4234 20.4918L17.197 20.5694L16.9547 21.2567H14.6878L14.445 20.5684L14.2186 20.4908C14.0292 20.426 13.8384 20.3464 13.6515 20.2545L13.4364 20.1492L12.7769 20.4646L11.1739 18.8617L11.4894 18.2021L11.3841 17.9871C11.2921 17.8002 11.213 17.6093 11.1477 17.42L11.0701 17.1935L10.3829 16.9513Z" fill="white"/>
<path d="M6.92207 23.2344H1.97788C1.16012 23.2344 0.494629 23.8999 0.494629 24.7176V29.6618C0.494629 30.4796 1.16012 31.1451 1.97788 31.1451H6.92207C7.73984 31.1451 8.40532 30.4796 8.40532 29.6618V24.7176C8.40532 23.8999 7.73984 23.2344 6.92207 23.2344ZM7.41649 29.6618C7.41649 29.9342 7.19449 30.1562 6.92207 30.1562H1.97788C1.70546 30.1562 1.48347 29.9342 1.48347 29.6618V24.7176C1.48347 24.4452 1.70546 24.2232 1.97788 24.2232H6.92207C7.19449 24.2232 7.41649 24.4452 7.41649 24.7176V29.6618Z" fill="white"/>
<path d="M29.6652 11.8633H24.721C23.9033 11.8633 23.2378 12.5288 23.2378 13.3465V18.2907C23.2378 19.1085 23.9033 19.774 24.721 19.774H29.6652C30.483 19.774 31.1485 19.1085 31.1485 18.2907V13.3465C31.1485 12.5288 30.483 11.8633 29.6652 11.8633ZM30.1596 18.2907C30.1596 18.5631 29.9377 18.7851 29.6652 18.7851H24.721C24.4486 18.7851 24.2266 18.5631 24.2266 18.2907V13.3465C24.2266 13.0741 24.4486 12.8521 24.721 12.8521H29.6652C29.9377 12.8521 30.1596 13.0741 30.1596 13.3465V18.2907Z" fill="white"/>
<path d="M4.94419 8.40288H9.88838C10.7061 8.40288 11.3716 7.73739 11.3716 6.91963V1.97544C11.3716 1.15767 10.7061 0.492188 9.88838 0.492188H4.94419C4.12642 0.492188 3.46094 1.15767 3.46094 1.97544V6.91963C3.46094 7.73739 4.12642 8.40288 4.94419 8.40288ZM4.44977 1.97544C4.44977 1.70302 4.67177 1.48102 4.94419 1.48102H9.88838C10.1608 1.48102 10.3828 1.70302 10.3828 1.97544V6.91963C10.3828 7.19205 10.1608 7.41404 9.88838 7.41404H4.94419C4.67177 7.41404 4.44977 7.19205 4.44977 6.91963V1.97544Z" fill="white"/>
<path d="M3.46095 27.9724L2.82167 27.3331L2.12256 28.0323L3.46095 29.3706L6.77701 26.0546L6.07791 25.3555L3.46095 27.9724Z" fill="white"/>
<path d="M9.74381 3.31239L9.0447 2.61328L6.42775 5.23024L5.78846 4.59095L5.08936 5.29006L6.42775 6.62845L9.74381 3.31239Z" fill="white"/>
<path d="M26.2046 16.6013L25.5653 15.962L24.8662 16.6612L26.2046 17.9995L29.5207 14.6835L28.8216 13.9844L26.2046 16.6013Z" fill="white"/>
<path d="M23.1175 22.261L23.3573 23.2202L26.1676 22.5176C23.8977 26.0339 20.0334 28.1792 15.8214 28.1792C14.0123 28.1792 12.269 27.7975 10.6404 27.0445L10.2256 27.9419C11.9852 28.7557 13.868 29.168 15.8214 29.168C20.3003 29.168 24.4139 26.9234 26.8801 23.2331L27.197 25.7684L28.1779 25.6458L27.6143 21.1367L23.1175 22.261Z" fill="white"/>
<path d="M5.91964 17.9124L4.95799 17.6825L4.3548 20.207C3.76348 18.7435 3.4609 17.2726 3.4609 15.82C3.4609 13.9956 3.84901 12.2389 4.61437 10.598L3.71799 10.1797C2.89133 11.9527 2.47206 13.8502 2.47206 15.82C2.47206 17.3937 2.7959 18.9813 3.42876 20.556L1.22761 19.3422L0.75 20.2085L4.83291 22.4591L5.91964 17.9124Z" fill="white"/>
<path d="M16.5904 4.52957L14.9825 3.45767H15.8215C20.4468 3.45767 24.6499 6.00788 26.7897 10.113L27.6663 9.65569C25.3559 5.22274 20.8171 2.46883 15.8215 2.46883H14.9825L16.5904 1.39693L16.042 0.574219L12.458 2.96325L16.0416 5.35228L16.5904 4.52957Z" fill="white"/>
</g>
<defs>
<clipPath id="clip0_1_10509">
<rect width="31.6428" height="31.6428" fill="white"/>
</clipPath>
</defs>
</svg>
